<?xml version="1.0" encoding="utf-8"?>
<!-- Generator: Adobe Illustrator 22.0.1, SVG Export Plug-In . SVG Version: 6.00 Build 0)  -->
<svg version="1.1" id="Layer_2" xmlns="http://www.w3.org/2000/svg" xmlns:xlink="http://www.w3.org/1999/xlink" x="0px" y="0px"
	 viewBox="0 0 152 154" style="enable-background:new 0 0 152 154;" xml:space="preserve">
<style type="text/css">
	.st0{fill:url(#SVGID_1_);}
	.st1{fill:#EFF0F3;}
	.st2{filter:url(#Adobe_OpacityMaskFilter);}
	.st3{fill:#FFFFFF;}
	.st4{mask:url(#mask-3_2_);fill:#F8F8F8;}
	.st5{filter:url(#Adobe_OpacityMaskFilter_1_);}
	.st6{mask:url(#mask-3_3_);fill:#EEEEEE;}
	.st7{filter:url(#Adobe_OpacityMaskFilter_2_);}
	.st8{mask:url(#mask-3_4_);fill:url(#Rectangle-34_1_);}
	.st9{filter:url(#Adobe_OpacityMaskFilter_3_);}
	.st10{mask:url(#mask-3_5_);}
	.st11{fill:#F8F8F8;}
	.st12{filter:url(#Adobe_OpacityMaskFilter_4_);}
	.st13{mask:url(#mask-3_6_);fill:#BCBFC6;}
	.st14{filter:url(#Adobe_OpacityMaskFilter_5_);}
	.st15{opacity:0.3694;mask:url(#mask-3_7_);fill:url(#Oval-7_1_);enable-background:new    ;}
	.st16{filter:url(#Adobe_OpacityMaskFilter_6_);}
	.st17{mask:url(#mask-3_8_);fill:#FFFFFF;}
</style>
<g id="Mobile">
	<g id="O.Story-Mobile-Add-New-User" transform="translate(-85.000000, -110.000000)">
		<g id="Group-2-Copy-2" transform="translate(85.000000, 110.000000)">
			<g id="Group-30">
				<g>
					
						<radialGradient id="SVGID_1_" cx="-345.7933" cy="373.5433" r="0.602" gradientTransform="matrix(-150 0 0 -150 -51794 56071.3984)" gradientUnits="userSpaceOnUse">
						<stop  offset="0" style="stop-color:#EFF0F3"/>
						<stop  offset="1" style="stop-color:#D4D7DD"/>
					</radialGradient>
					<path class="st0" d="M31.5,105.1L47.4,99c17.9-6.8,37.6-6.8,55.4,0l15.9,6.1c7.2,2.7,12.2,9.4,12.8,17.1l0.2,1.9
						c11.4-13.1,18.2-30.3,18.2-49c0-41.4-33.6-75-75-75C33.6,0,0,33.6,0,75c0,18.9,7,36.1,18.5,49.3l0.2-2.2
						C19.3,114.4,24.3,107.8,31.5,105.1z"/>
					<path class="st1" d="M75,150c22.7,0,43-10.1,56.8-26l-0.2-1.9c-0.6-7.7-5.6-14.3-12.8-17.1L102.9,99c-17.9-6.8-37.6-6.8-55.4,0
						l-15.9,6.1c-7.2,2.7-12.2,9.4-12.8,17.1l-0.2,2.2C32.2,140,52.4,150,75,150z"/>
				</g>
				<defs>
					<filter id="Adobe_OpacityMaskFilter" filterUnits="userSpaceOnUse" x="50.5" y="96.1" width="47.3" height="21.9">
						<feColorMatrix  type="matrix" values="1 0 0 0 0  0 1 0 0 0  0 0 1 0 0  0 0 0 1 0"/>
					</filter>
				</defs>
				<mask maskUnits="userSpaceOnUse" x="50.5" y="96.1" width="47.3" height="21.9" id="mask-3_2_">
					<g class="st2">
						<circle id="path-2_3_" class="st3" cx="75" cy="75" r="75"/>
					</g>
				</mask>
				<path id="Combined-Shape" class="st4" d="M86.7,98l9.7,3c1.1,0.3,1.6,1.5,1.3,2.5c-0.1,0.3-0.2,0.5-0.4,0.7
					c-7.7,9.2-15.5,13.8-23.2,13.8s-15.5-4.6-23.2-13.8h0c-0.7-0.8-0.6-2.1,0.2-2.8c0.2-0.2,0.4-0.3,0.7-0.4l9.7-3
					C69.8,95.5,78.5,95.5,86.7,98z"/>
				<defs>
					<filter id="Adobe_OpacityMaskFilter_1_" filterUnits="userSpaceOnUse" x="41" y="52" width="68" height="20">
						<feColorMatrix  type="matrix" values="1 0 0 0 0  0 1 0 0 0  0 0 1 0 0  0 0 0 1 0"/>
					</filter>
				</defs>
				<mask maskUnits="userSpaceOnUse" x="41" y="52" width="68" height="20" id="mask-3_3_">
					<g class="st5">
						<circle id="path-2_4_" class="st3" cx="75" cy="75" r="75"/>
					</g>
				</mask>
				<path id="Combined-Shape_1_" class="st6" d="M50.2,72c-2.1,0-4.4-1.8-6.2-4.2c-1.8-2.4-3-5.4-3-7.8c0-4.7,2.4-8,6.6-8
					c4.4,0,9.4,4.8,9.4,9.5S54.5,72,50.2,72z M100,72c-4.5,0-7-5.8-7-10c0-5.2,5-10,9-10c4.6,0,7,3.3,7,8c0,2.4-1.2,5.4-3,8
					C104.2,70.2,101.9,72,100,72z"/>
				<defs>
					<filter id="Adobe_OpacityMaskFilter_2_" filterUnits="userSpaceOnUse" x="62" y="71" width="26" height="40">
						<feColorMatrix  type="matrix" values="1 0 0 0 0  0 1 0 0 0  0 0 1 0 0  0 0 0 1 0"/>
					</filter>
				</defs>
				<mask maskUnits="userSpaceOnUse" x="62" y="71" width="26" height="40" id="mask-3_4_">
					<g class="st7">
						<circle id="path-2_5_" class="st3" cx="75" cy="75" r="75"/>
					</g>
				</mask>
				
					<linearGradient id="Rectangle-34_1_" gradientUnits="userSpaceOnUse" x1="-330.2692" y1="369.2133" x2="-330.2692" y2="368.9249" gradientTransform="matrix(26 0 0 -40.0002 8662 14862.1113)">
					<stop  offset="0" style="stop-color:#E8E9EC"/>
					<stop  offset="1" style="stop-color:#F8F8F8"/>
				</linearGradient>
				<path id="Rectangle-34" class="st8" d="M62,71h26v29c0,4.2-2.6,8-6.5,9.5l-1.5,0.6c-3.2,1.2-6.8,1.2-10.1,0l-1.5-0.6
					c-3.9-1.5-6.5-5.3-6.5-9.5V71z"/>
				<defs>
					<filter id="Adobe_OpacityMaskFilter_3_" filterUnits="userSpaceOnUse" x="45" y="16" width="60" height="80.7">
						<feColorMatrix  type="matrix" values="1 0 0 0 0  0 1 0 0 0  0 0 1 0 0  0 0 0 1 0"/>
					</filter>
				</defs>
				<mask maskUnits="userSpaceOnUse" x="45" y="16" width="60" height="80.7" id="mask-3_5_">
					<g class="st9">
						<circle id="path-2_6_" class="st3" cx="75" cy="75" r="75"/>
					</g>
				</mask>
				<g id="Group-21" class="st10">
					<g id="Oval" transform="translate(45.000000, 16.000000)">
						<path class="st11" d="M30.1,80.7c0-45.3,0-47.8,0-80.7C12.5,0,0,11.8,0,32.9c0,4.5,1.5,10.2,4.6,17h0c0.3,0.7,0.6,1.5,0.9,2.2
							l6.3,15.1c0.2,0.4,0.4,0.8,0.6,1.2C17,76.6,22.9,80.7,30.1,80.7z"/>
						<path class="st1" d="M30,80.7c0-33.4,0-45.3,0-80.7c17.5,0,30,11.8,30,32.9c0,4.5-1.5,10.2-4.6,17l0,0
							c-0.3,0.7-0.6,1.5-0.9,2.2l-6.4,15.4C48,67.7,48,67.9,47.9,68C43.9,76.5,37.9,80.7,30,80.7z"/>
					</g>
				</g>
				<defs>
					<filter id="Adobe_OpacityMaskFilter_4_" filterUnits="userSpaceOnUse" x="43" y="12" width="64" height="54">
						<feColorMatrix  type="matrix" values="1 0 0 0 0  0 1 0 0 0  0 0 1 0 0  0 0 0 1 0"/>
					</filter>
				</defs>
				<mask maskUnits="userSpaceOnUse" x="43" y="12" width="64" height="54" id="mask-3_6_">
					<g class="st12">
						<circle id="path-2_7_" class="st3" cx="75" cy="75" r="75"/>
					</g>
				</mask>
				<path id="Combined-Shape_2_" class="st13" d="M43,43.8C43,26.2,57.3,12,75,12s32,14.2,32,31.8c0,4.4,0.4,11.4-4,20.2
					c-0.3,0.7-1.2,1.3-2.5,2l0.5-16.9c-2.9-1.2-5.7-3-8.5-5.5c-2.8-2.4-5.3-5.3-7.5-8.4c-5.1,3.3-10.8,6.2-17,8.6S55.4,48,49,49.1
					L49.5,66c-1.5-1-2.4-1.6-2.5-2C43.4,55,43,48.1,43,43.8z"/>
				<defs>
					<filter id="Adobe_OpacityMaskFilter_5_" filterUnits="userSpaceOnUse" x="55" y="20" width="40" height="26">
						<feColorMatrix  type="matrix" values="1 0 0 0 0  0 1 0 0 0  0 0 1 0 0  0 0 0 1 0"/>
					</filter>
				</defs>
				<mask maskUnits="userSpaceOnUse" x="55" y="20" width="40" height="26" id="mask-3_7_">
					<g class="st14">
						<circle id="path-2_8_" class="st3" cx="75" cy="75" r="75"/>
					</g>
				</mask>
				
					<linearGradient id="Oval-7_1_" gradientUnits="userSpaceOnUse" x1="-334.9" y1="366.7887" x2="-334.9" y2="365.8145" gradientTransform="matrix(40 0 0 -26 13471 9557.1758)">
					<stop  offset="0" style="stop-color:#FFFFFF"/>
					<stop  offset="1" style="stop-color:#FFFFFF;stop-opacity:0"/>
				</linearGradient>
				<ellipse id="Oval-7" class="st15" cx="75" cy="33" rx="20" ry="13"/>
				<defs>
					<filter id="Adobe_OpacityMaskFilter_6_" filterUnits="userSpaceOnUse" x="62" y="80" width="26" height="8">
						<feColorMatrix  type="matrix" values="1 0 0 0 0  0 1 0 0 0  0 0 1 0 0  0 0 0 1 0"/>
					</filter>
				</defs>
				<mask maskUnits="userSpaceOnUse" x="62" y="80" width="26" height="8" id="mask-3_8_">
					<g class="st16">
						<circle id="path-2_9_" class="st3" cx="75" cy="75" r="75"/>
					</g>
				</mask>
				<path id="Combined-Shape_3_" class="st17" d="M62,80c1.7,4.6,6.4,8,13,8c5.7,0,11.4-3.4,13-8H62z"/>
			</g>
		</g>
	</g>
</g>
</svg>
