<?xml version="1.0" encoding="utf-8"?>
<!-- Generator: Adobe Illustrator 22.1.0, SVG Export Plug-In . SVG Version: 6.00 Build 0)  -->
<svg version="1.1" id="Layer_2_1_" xmlns="http://www.w3.org/2000/svg" xmlns:xlink="http://www.w3.org/1999/xlink" x="0px" y="0px"
	 viewBox="0 0 16 16" style="enable-background:new 0 0 16 16;" xml:space="preserve">
<style type="text/css">
	.st0{fill:#687086;}
</style>
<path id="path-1_1_" class="st0" d="M14,2h2v14H0V2h2V1c0-0.6,0.4-1,1-1s1,0.4,1,1v1h8V1c0-0.6,0.4-1,1-1s1,0.4,1,1V2z M2,5v9h12V5
	H2z M4,7h2v2H4V7z M7,7h2v2H7V7z M10,7h2v2h-2V7z M4,10h2v2H4V10z M7,10h2v2H7V10z M10,10h2v2h-2V10z"/>
</svg>
