
              <svg version="1.1" id="Layer_1" xmlns="http://www.w3.org/2000/svg" xmlns:xlink="http://www.w3.org/1999/xlink" x="0px" y="0px"
              viewBox="0 0 16 16" style="enable-background:new 0 0 16 16;" xml:space="preserve">
        <style type="text/css">
            .tools0{fill:#687086;}
        </style>
        <path id="path-1_1_" class="tools0" d="M1.4,10.5l4.9-3.9C6.1,6.1,6,5.6,6,5c0-2.8,2.2-5,5-5c0.4,0,0.9,0.1,1.3,0.2L9.7,2.7
            C9.3,3.2,9,3.8,9,4.5C9,5.9,10.1,7,11.5,7c0.7,0,1.3-0.3,1.8-0.7l2.5-2.5C15.9,4.1,16,4.6,16,5c0,2.8-2.2,5-5,5
            c-0.6,0-1.1-0.1-1.6-0.3l-3.9,4.9C5,15.5,4.1,16,3,16c-1.7,0-3-1.3-3-3C0,11.9,0.5,11,1.4,10.5"/>
        </svg>
