<?xml version="1.0" encoding="utf-8"?>
<!-- Generator: Adobe Illustrator 23.0.0, SVG Export Plug-In . SVG Version: 6.00 Build 0)  -->
<svg version="1.1" id="Layer_2" xmlns="http://www.w3.org/2000/svg" xmlns:xlink="http://www.w3.org/1999/xlink" x="0px" y="0px"
	 viewBox="0 0 16 16" style="enable-background:new 0 0 16 16;" xml:space="preserve">
<style type="text/css">
	.st0{fill-rule:evenodd;clip-rule:evenodd;fill:#FFFFFF;}
	.st1{opacity:0.1;fill-rule:evenodd;clip-rule:evenodd;fill:#FFFFFF;enable-background:new    ;}
	.st2{opacity:0.2;fill-rule:evenodd;clip-rule:evenodd;fill:#FFFFFF;enable-background:new    ;}
	.st3{opacity:0.3;fill-rule:evenodd;clip-rule:evenodd;fill:#FFFFFF;enable-background:new    ;}
	.st4{opacity:0.4;fill-rule:evenodd;clip-rule:evenodd;fill:#FFFFFF;enable-background:new    ;}
	.st5{opacity:0.5;fill-rule:evenodd;clip-rule:evenodd;fill:#FFFFFF;enable-background:new    ;}
	.st6{opacity:0.7;fill-rule:evenodd;clip-rule:evenodd;fill:#FFFFFF;enable-background:new    ;}
	.st7{opacity:0.9;fill-rule:evenodd;clip-rule:evenodd;fill:#FFFFFF;enable-background:new    ;}
	.st8{fill-rule:evenodd;clip-rule:evenodd;fill:#687086;}
	.st9{opacity:0.1;fill-rule:evenodd;clip-rule:evenodd;fill:#687086;enable-background:new    ;}
	.st10{opacity:0.2;fill-rule:evenodd;clip-rule:evenodd;fill:#687086;enable-background:new    ;}
	.st11{opacity:0.3;fill-rule:evenodd;clip-rule:evenodd;fill:#687086;enable-background:new    ;}
	.st12{opacity:0.4;fill-rule:evenodd;clip-rule:evenodd;fill:#687086;enable-background:new    ;}
	.st13{opacity:0.5;fill-rule:evenodd;clip-rule:evenodd;fill:#687086;enable-background:new    ;}
	.st14{opacity:0.7;fill-rule:evenodd;clip-rule:evenodd;fill:#687086;enable-background:new    ;}
	.st15{opacity:0.9;fill-rule:evenodd;clip-rule:evenodd;fill:#687086;enable-background:new    ;}
</style>
<g>
	<path id="Path" class="st0" d="M8,4C6.9,4,6,3.1,6,2s0.9-2,2-2s2,0.9,2,2S9.1,4,8,4z"/>
	<path class="st1" d="M10.6,5.4c-0.8-0.8-0.8-2,0-2.8c0.8-0.8,2-0.8,2.8,0c0.8,0.8,0.8,2,0,2.8C12.6,6.2,11.4,6.2,10.6,5.4z"/>
	<path class="st2" d="M12,8c0-1.1,0.9-2,2-2s2,0.9,2,2s-0.9,2-2,2S12,9.1,12,8z"/>
	<path class="st3" d="M10.6,10.6c0.8-0.8,2-0.8,2.8,0c0.8,0.8,0.8,2,0,2.8c-0.8,0.8-2,0.8-2.8,0C9.8,12.6,9.8,11.4,10.6,10.6z"/>
	<path class="st4" d="M8,12c1.1,0,2,0.9,2,2s-0.9,2-2,2s-2-0.9-2-2S6.9,12,8,12z"/>
	<path class="st5" d="M5.4,10.6c0.8,0.8,0.8,2,0,2.8c-0.8,0.8-2,0.8-2.8,0c-0.8-0.8-0.8-2,0-2.8C3.4,9.8,4.6,9.8,5.4,10.6z"/>
	<path class="st6" d="M4,8c0,1.1-0.9,2-2,2S0,9.1,0,8s0.9-2,2-2S4,6.9,4,8z"/>
	<path class="st7" d="M5.4,5.4c-0.8,0.8-2,0.8-2.8,0s-0.8-2,0-2.8s2-0.8,2.8,0S6.2,4.6,5.4,5.4z"/>
	<g id="Group-8">
		<path id="Path-Copy" class="st8" d="M8,4C6.9,4,6,3.1,6,2s0.9-2,2-2s2,0.9,2,2S9.1,4,8,4z"/>
		<path id="Path-Copy-2" class="st9" d="M10.6,5.4c-0.8-0.8-0.8-2,0-2.8c0.8-0.8,2-0.8,2.8,0c0.8,0.8,0.8,2,0,2.8
			C12.6,6.2,11.4,6.2,10.6,5.4z"/>
		<path id="Path-Copy-3" class="st10" d="M12,8c0-1.1,0.9-2,2-2s2,0.9,2,2s-0.9,2-2,2S12,9.1,12,8z"/>
		<path id="Path-Copy-4" class="st11" d="M10.6,10.6c0.8-0.8,2-0.8,2.8,0c0.8,0.8,0.8,2,0,2.8c-0.8,0.8-2,0.8-2.8,0
			C9.8,12.6,9.8,11.4,10.6,10.6z"/>
		<path id="Path-Copy-5" class="st12" d="M8,12c1.1,0,2,0.9,2,2s-0.9,2-2,2s-2-0.9-2-2S6.9,12,8,12z"/>
		<path id="Path-Copy-6" class="st13" d="M5.4,10.6c0.8,0.8,0.8,2,0,2.8c-0.8,0.8-2,0.8-2.8,0c-0.8-0.8-0.8-2,0-2.8
			C3.4,9.8,4.6,9.8,5.4,10.6z"/>
		<path id="Path-Copy-7" class="st14" d="M4,8c0,1.1-0.9,2-2,2S0,9.1,0,8s0.9-2,2-2S4,6.9,4,8z"/>
		<path id="Path-Copy-8" class="st15" d="M5.4,5.4c-0.8,0.8-2,0.8-2.8,0s-0.8-2,0-2.8s2-0.8,2.8,0S6.2,4.6,5.4,5.4z"/>
	</g>
</g>
</svg>
