<?xml version="1.0" encoding="utf-8"?>
<!-- Generator: Adobe Illustrator 22.0.1, SVG Export Plug-In . SVG Version: 6.00 Build 0)  -->
<svg version="1.1" id="Layer_1" xmlns="http://www.w3.org/2000/svg" xmlns:xlink="http://www.w3.org/1999/xlink" x="0px" y="0px"
	 viewBox="0 0 266 38" style="enable-background:new 0 0 266 38;" xml:space="preserve">
<style type="text/css">
	.st0{fill:#FFFFFF;}
</style>
<g id="NEW-DESIGN">
	<g id="Login" transform="translate(-1124.000000, -127.000000)">
		<g id="Group-3" transform="translate(1020.000000, 100.000000)">
			<g id="Group-4" transform="translate(104.000000, 26.000000)">
				<path id="Shape" class="st0" d="M22.7,4.4c2.1,1.1,3.8,2.7,4.9,4.7c1.2,2.2,1.8,4.7,1.8,7.2c0,2.5-0.6,4.9-1.8,7.1
					c-1.2,2-2.9,3.6-4.9,4.7c-4.7,2.3-10.2,2.3-15,0c-2.1-1.1-3.9-2.8-5-4.8C1.4,21,0.8,18.5,0.9,16c-0.1-2.5,0.6-5,1.8-7.2
					c1.2-2,3-3.5,5-4.5C12.4,2.1,17.9,2.1,22.7,4.4L22.7,4.4z M10.3,11.1c-1.3,1.5-1.9,3.4-1.9,5.3c-0.1,1.9,0.6,3.8,1.9,5.3
					c1.3,1.3,3,2,4.8,2s3.5-0.7,4.8-2c1.3-1.5,1.9-3.4,1.9-5.3c0.1-1.9-0.6-3.8-1.9-5.3c-1.3-1.3-3-2-4.8-2S11.6,9.8,10.3,11.1
					L10.3,11.1z M57.4,4.4c1.9,1.1,3.4,2.8,4.4,4.8c1.1,2.2,1.6,4.7,1.6,7.2c0,2.4-0.5,4.9-1.6,7.1c-1,1.9-2.5,3.5-4.3,4.6
					c-2,1.2-4.2,1.7-6.5,1.7c-1.7,0-3.4-0.3-4.9-1.1c-1.4-0.7-2.7-1.8-3.6-3.1V39h-7.7V2.8h7.6v3.9c0.9-1.3,2.2-2.4,3.6-3.1
					c1.5-0.7,3.2-1.1,4.8-1.1C53.1,2.6,55.4,3.2,57.4,4.4L57.4,4.4z M53.8,21.5c1.3-1.5,1.9-3.4,1.8-5.3c0.1-1.9-0.6-3.8-1.8-5.3
					c-1.2-1.4-2.9-2.1-4.8-2.1c-1.8-0.1-3.6,0.7-4.8,2.1c-1.3,1.5-1.9,3.4-1.9,5.3c-0.1,2,0.6,3.9,1.9,5.4c1.2,1.3,3,2.1,4.8,2
					C50.9,23.6,52.6,22.8,53.8,21.5L53.8,21.5z M89.7,6.3c2.4,2.9,3.6,6.6,3.4,10.4c0,0.8,0,1.4,0,1.8H73.8c0.3,1.6,1.2,3,2.5,3.9
					c1.3,1,2.8,1.5,4.4,1.4c1.2,0,2.5-0.2,3.6-0.7c1.2-0.5,2.2-1.2,3.1-2.1l4,4c-1.4,1.5-3.1,2.6-4.9,3.4c-2.1,0.8-4.3,1.2-6.5,1.2
					c-2.6,0.1-5.1-0.5-7.4-1.7c-2-1.1-3.7-2.7-4.9-4.8c-1.2-2.2-1.8-4.6-1.7-7.1c-0.1-2.5,0.5-5,1.7-7.2c1.1-2,2.8-3.6,4.9-4.7
					c2.2-1.2,4.7-1.8,7.2-1.7C83.5,2.4,87.1,3.7,89.7,6.3z M85.8,14c0-1.6-0.6-3.1-1.7-4.2c-1.1-1.1-2.7-1.7-4.2-1.6
					c-1.5-0.1-3,0.5-4.1,1.6c-1.2,1.1-1.9,2.6-2.1,4.3H85.8z M122,5.3c1.8,2,2.8,4.7,2.7,7.5v16.9H117V15c0-1.4-0.5-2.8-1.4-3.9
					c-1-1-2.4-1.5-3.8-1.5c-1.7,0-3.3,0.7-4.5,2c-1.1,1.4-1.7,3.1-1.6,4.9v13.1H98V2.8h7.6v4.7c1.9-3.2,5.5-5.1,9.2-5
					C117.5,2.4,120.2,3.4,122,5.3L122,5.3z"/>
				<path id="Shape_1_" class="st0" d="M144.9,4.7c-1.3-0.4-2.6-0.6-3.9-0.6c-1.5-0.1-3.1,0.3-4.4,1.1c-1,0.6-1.7,1.7-1.7,2.9
					c0,1,0.3,1.9,0.9,2.7c0.6,0.7,1.4,1.3,2.3,1.7c1.2,0.5,2.5,0.9,3.8,1.3c1.6,0.5,3.2,1.1,4.7,1.7c1.2,0.5,2.2,1.4,3,2.4
					c0.9,1.2,1.3,2.7,1.2,4.2c0,2.2-1,4.3-2.8,5.6c-2.2,1.5-4.8,2.2-7.5,2.1c-4-0.1-7.9-1.6-10.9-4.3l1.5-2.7
					c1.3,1.2,2.8,2.2,4.5,2.9c1.6,0.7,3.3,1.1,5,1.1c1.7,0.1,3.4-0.3,4.9-1.2c1.2-0.7,1.8-2,1.8-3.4c0-1-0.3-2-0.9-2.8
					c-0.7-0.7-1.5-1.3-2.4-1.7c-1.3-0.5-2.5-1-3.8-1.3c-1.6-0.5-3.1-1-4.6-1.7c-1.2-0.5-2.2-1.3-3-2.4c-0.9-1.2-1.3-2.6-1.2-4.1
					c-0.1-2.1,1-4.1,2.7-5.3c2.1-1.4,4.6-2.1,7.2-2c1.6,0,3.3,0.2,4.8,0.7c1.5,0.4,2.9,1,4.1,1.9l-1.3,2.8
					C147.6,5.6,146.2,5.1,144.9,4.7z M153.8,1.3h21.8v3h-9.2v25.2H163V4.4h-9.2L153.8,1.3z M200.7,3c2.2,1.2,4.1,3,5.4,5.2
					c1.3,2.2,2,4.6,2,7.2c0,2.6-0.7,5.1-2,7.3c-1.3,2.3-3.1,4.1-5.4,5.4c-4.6,2.6-10.3,2.6-14.9,0c-2.2-1.2-4.1-3-5.4-5.2
					c-1.3-2.2-2-4.7-2-7.3c0-2.5,0.7-5,2-7.2c1.3-2.2,3.1-4,5.4-5.3C190.5,0.5,196.1,0.5,200.7,3L200.7,3z M187.6,5.5
					c-1.7,1-3.2,2.4-4.2,4.1c-1,1.7-1.6,3.7-1.6,5.7c0,2,0.5,4,1.6,5.7c1,1.7,2.5,3.1,4.2,4.1c1.7,1,3.7,1.6,5.7,1.6
					c2,0,4-0.5,5.7-1.6c1.7-1,3-2.3,4-3.9c1-1.7,1.6-3.7,1.6-5.7c0-2-0.5-4-1.6-5.7c-1-1.7-2.4-3.1-4.1-4.1c-1.7-1-3.7-1.5-5.7-1.5
					c-2,0-3.9,0.5-5.6,1.5V5.5z M234.4,29.4l-5.8-9h-1.8h-7.4v8.9h-3.4V1.4h10.7c3-0.2,5.9,0.7,8.3,2.5c2,1.7,3.1,4.3,2.9,7
					c0.1,2.1-0.5,4.1-1.7,5.8c-1.2,1.6-2.8,2.8-4.7,3.4l6.7,9.6L234.4,29.4z M226.6,17.9c2.1,0.1,4.2-0.5,5.9-1.8
					c1.4-1.3,2.2-3.1,2.1-5c0.1-1.9-0.7-3.7-2.1-4.9c-1.7-1.3-3.8-1.9-5.9-1.8h-7.4v13.5H226.6z M265.9,1.6l-10.8,18.3v9.8h-3.4
					v-9.9L240.8,1.4h3.4l9.4,14.7l9-14.7L265.9,1.6z"/>
			</g>
		</g>
	</g>
</g>
</svg>
