<?xml version="1.0" encoding="utf-8"?>
<!-- Generator: Adobe Illustrator 22.0.1, SVG Export Plug-In . SVG Version: 6.00 Build 0)  -->
<svg version="1.1" id="Layer_1" xmlns="http://www.w3.org/2000/svg" xmlns:xlink="http://www.w3.org/1999/xlink" x="0px" y="0px"
	 viewBox="0 0 84 84" style="enable-background:new 0 0 84 84;" xml:space="preserve">
<style type="text/css">
	.st0{fill:#0074C0;}
	.st1{fill:#53D79F;}
	.st2{fill:#3BC986;}
</style>
<g id="NEW-DESIGN">
	<g id="Login" transform="translate(-1020.000000, -100.000000)">
		<g id="Group-3" transform="translate(1020.000000, 100.000000)">
			<g id="logo">
				<g id="logo-O-story">
					<path id="Logo" class="st0" d="M84,42c0,23.2-18.8,42-42,42S0,65.2,0,42S18.8,0,42,0c11.1,0,21.8,4.4,29.7,12.3S84,30.9,84,42z
						 M42,26.9c-8.4,0-15.1,6.8-15.1,15.1S33.6,57.1,42,57.1S57.1,50.4,57.1,42c0-4-1.6-7.9-4.4-10.7C49.9,28.5,46,26.9,42,26.9z"/>
					<circle id="Oval" class="st1" cx="69" cy="15" r="15"/>
					<path id="Shape" class="st2" d="M59.1,3.8c-4.2,3.7-6,9.4-4.7,14.8s5.6,9.7,11,11s11.1-0.5,14.8-4.7C76,15.5,68.5,8,59.1,3.8z"
						/>
				</g>
			</g>
		</g>
	</g>
</g>
</svg>
