<?xml version="1.0" encoding="utf-8"?>
<!-- Generator: Adobe Illustrator 22.0.1, SVG Export Plug-In . SVG Version: 6.00 Build 0)  -->
<svg version="1.1" id="Layer_2" xmlns="http://www.w3.org/2000/svg" xmlns:xlink="http://www.w3.org/1999/xlink" x="0px" y="0px"
	 viewBox="0 0 168 121" style="enable-background:new 0 0 168 121;" xml:space="preserve">
<style type="text/css">
	.st0{fill:#E1E3E7;}
	.st1{fill:#DDDFE4;}
	.st2{fill:#EFF0F3;}
</style>
<g id="Rectangle-3">
	<path class="st0" d="M167.6,120.5H0.4V0.5h167.2V120.5z M3.4,117.5h161.2V3.5H3.4V117.5z"/>
</g>
<g id="Rectangle-3_1_">
	<rect x="13.2" y="13.3" class="st1" width="141.7" height="94.5"/>
</g>
<g>
	<path class="st2" d="M66.9,71.2c-6.2,2.5-9.9,7.9-8.2,12.2c1.7,4.2,8.1,5.7,14.3,3.2c4.3-1.7,7.4-4.9,8.3-8
		c0.2-0.4,0.3-0.8,0.3-1.2V53.4l22.7-4.2v20.1c-2.7-0.8-6.1-0.6-9.5,0.8c-6.2,2.5-9.9,7.9-8.2,12.2c1.7,4.2,8.1,5.7,14.3,3.2
		c4.3-1.7,7.4-4.9,8.3-8c0.2-0.4,0.3-0.8,0.3-1.2V44.1c0-0.2,0-0.3,0-0.5v-8.7c0-0.9-0.7-1.7-1.7-1.7l-29.9,5.5
		c-0.9,0-1.7,0.7-1.7,1.7v12c0,0,0,0.1,0,0.1v17.8C73.7,69.6,70.3,69.8,66.9,71.2z"/>
</g>
</svg>
