<?xml version="1.0" encoding="utf-8"?>
<!-- Generator: Adobe Illustrator 22.0.1, SVG Export Plug-In . SVG Version: 6.00 Build 0)  -->
<svg version="1.1" id="Layer_2" xmlns="http://www.w3.org/2000/svg" xmlns:xlink="http://www.w3.org/1999/xlink" x="0px" y="0px"
	 viewBox="0 0 168 121" style="enable-background:new 0 0 168 121;" xml:space="preserve">
<style type="text/css">
	.st0{fill:#E1E3E7;}
	.st1{fill:#DDDFE4;}
	.st2{fill:#EFF0F3;}
</style>
<g id="Rectangle-3">
	<path class="st0" d="M167.6,120.5H0.4V0.5h167.2V120.5z M3.4,117.5h161.2V3.5H3.4V117.5z"/>
</g>
<g id="Rectangle-3_1_">
	<rect x="13.2" y="13.3" class="st1" width="141.7" height="94.5"/>
</g>
<g>
	<path class="st2" d="M63.1,60.4c0-7.4,0-14.8,0-22.2c0-3.3,1.6-4.9,5-4.9c7.3,0,14.5,0,21.8,0c0.8,0,1.8,0.4,2.3,0.9
		c4,3.9,8,7.9,11.9,11.9c0.5,0.5,0.9,1.4,0.9,2.2c0.1,11.5,0,23.1,0,34.6c0,3.2-1.7,4.9-4.8,4.9c-10.7,0-21.5,0-32.2,0
		c-3.2,0-4.9-1.7-4.9-4.9C63,75.4,63.1,67.9,63.1,60.4z M67.2,83.5c11.2,0,22.4,0,33.5,0c0-10.5,0-20.9,0-31.4c-2.8,0-5.5-0.1-8.2,0
		c-5.1,0.3-6.7-1.4-6.4-6.4c0.1-2.7,0-5.4,0-8.2c-6.4,0-12.7,0-18.9,0C67.2,52.9,67.2,68.1,67.2,83.5z M99.4,47.9
		c-3.1-3.1-6.1-6.1-9.1-9c0,2.9,0,5.9,0,9C93.4,47.9,96.4,47.9,99.4,47.9z"/>
	<path class="st2" d="M73.7,64.8c6.9,0,13.8,0,20.7,0c0,1.3,0,2.6,0,3.9c-6.9,0-13.7,0-20.7,0C73.7,67.5,73.7,66.2,73.7,64.8z"/>
	<path class="st2" d="M73.7,62.5c0-1.4,0-2.6,0-3.9c6.9,0,13.8,0,20.7,0c0,1.3,0,2.6,0,3.9C87.4,62.5,80.6,62.5,73.7,62.5z"/>
	<path class="st2" d="M83.8,75.1c-3.4,0-6.7,0-10.1,0c0-1.3,0-2.6,0-4c3.4,0,6.7,0,10.1,0C83.8,72.4,83.8,73.7,83.8,75.1z"/>
</g>
</svg>
