<?xml version="1.0" encoding="utf-8"?>
<!-- Generator: Adobe Illustrator 22.0.1, SVG Export Plug-In . SVG Version: 6.00 Build 0)  -->
<svg version="1.1" id="Layer_2" xmlns="http://www.w3.org/2000/svg" xmlns:xlink="http://www.w3.org/1999/xlink" x="0px" y="0px"
	 viewBox="0 0 168 121" style="enable-background:new 0 0 168 121;" xml:space="preserve">
<style type="text/css">
	.st0{fill:#E1E3E7;}
	.st1{fill:#DDDFE4;}
	.st2{fill:#EFF0F3;}
</style>
<g id="Rectangle-3">
	<path class="st0" d="M167.6,120.5H0.4V0.5h167.2V120.5z M3.4,117.5h161.2V3.5H3.4V117.5z"/>
</g>
<g id="Rectangle-3_1_">
	<rect x="13.2" y="13.3" class="st1" width="141.7" height="94.5"/>
</g>
<g>
	<g>
		<path class="st2" d="M53,54.6c1-1.4,2.4-1.5,4-1.5c12.6,0,25.2,0,37.8,0c0.8,0,1.6,0.2,2.3,0.5c0.7,0.3,1,0.9,1,1.7
			c0,9.1,0,18.1,0,27.2c0,1.2-0.7,2.1-2,2.2c-0.7,0.1-1.3,0.2-2,0.2c-12.5,0-25.1,0-37.6,0c-1.4,0-2.5-0.4-3.5-1.3
			C53,74,53,64.3,53,54.6z"/>
		<path class="st2" d="M115,86.6c-0.2,0.1-0.4,0.2-0.5,0.4c-0.6,0.8-1.6,1-2.4,0.4c-2.2-1.8-4.5-3.5-6.6-5.4
			c-1.7-1.5-3.2-3.3-4.8-4.9c-0.5-0.5-0.7-1.1-0.7-1.9c0-4.1,0-8.2,0-12.3c0-0.5,0.2-1.1,0.5-1.5c3.2-3.9,6.9-7.4,11.1-10.4
			c0.2-0.2,0.5-0.3,0.7-0.4c0.8-0.4,1.6-0.3,2.2,0.3c0.2,0.2,0.4,0.3,0.6,0.5C115,63.1,115,74.8,115,86.6z"/>
		<path class="st2" d="M75.7,42.5c-0.3-4.9,4.3-9.2,9.1-9.3c5.2,0,9.5,4.4,9.5,9.3c0,5.1-4.4,9.3-9.2,9.3C80,52,75.3,47.6,75.7,42.5
			z"/>
		<path class="st2" d="M64.2,51.8c-4,0.2-7.4-3.5-7.4-7.3c0-4,3.3-7.6,7.4-7.5c4.6,0.1,7.5,3.4,7.5,7.4C71.8,48.5,68.5,52,64.2,51.8
			z"/>
	</g>
</g>
</svg>
