                  <svg xmlns="http://www.w3.org/2000/svg" xmlns:xlink="http://www.w3.org/1999/xlink" version="1.1" id="Layer_2_1_" x="0px" y="0px" viewBox="0 0 48 49" style="enable-background:new 0 0 48 49;" xml:space="preserve">
                    <style type="text/css">
                      .st0{fill:#53D79F;}
                    </style>
                    <path id="path-1_1_" class="st0" d="M18.7,30.4c-2.8-1.7-4.8-4.6-5.1-8l-0.7-9.6C12.5,6.6,17,1.3,23.1,0.8c0.3,0,0.6,0,0.9,0  c6.1,0,11.1,4.9,11.1,11c0,0.3-0.8,10.4-0.8,10.4c-0.3,3.4-2.2,6.4-5.1,8l0.7,1.4l16.2,6.9c1.1,0.5,1.8,1.5,1.8,2.7l-0.1,7.5H-0.1  v-7.4c0-1.2,0.7-2.3,1.8-2.7L18,31.9L18.7,30.4z"/>
                  </svg>
