<?xml version="1.0" encoding="utf-8"?>
<!-- Generator: Adobe Illustrator 23.0.0, SVG Export Plug-In . SVG Version: 6.00 Build 0)  -->
<svg version="1.1" id="Layer_2" xmlns="http://www.w3.org/2000/svg" xmlns:xlink="http://www.w3.org/1999/xlink" x="0px" y="0px"
	 viewBox="0 0 10 10" style="enable-background:new 0 0 10 10;" xml:space="preserve">
<style type="text/css">
	.stwarning{fill-rule:evenodd;clip-rule:evenodd; fill: #986004}
</style>
<g id="NEW-DESIGN">
	<g id="Add-Comment" transform="translate(-1254.000000, -53.000000)">
		<g transform="translate(1354.000000, 153.000000)">
			<g transform="translate(3.000000, 3.000000)">
				<g id="Mask">
					<path class="stwarning" d="M-98-96.6l-3.3,3.3c-0.4,0.4-1,0.4-1.4,0s-0.4-1,0-1.4l3.3-3.3l-3.3-3.3c-0.4-0.4-0.4-1,0-1.4s1-0.4,1.4,0
						l3.3,3.3l3.3-3.3c0.4-0.4,1-0.4,1.4,0s0.4,1,0,1.4l-3.3,3.3l3.3,3.3c0.4,0.4,0.4,1,0,1.4s-1,0.4-1.4,0L-98-96.6z"/>
				</g>
			</g>
		</g>
	</g>
</g>
</svg>
