<?xml version="1.0" encoding="utf-8"?>
<!-- Generator: Adobe Illustrator 23.0.0, SVG Export Plug-In . SVG Version: 6.00 Build 0)  -->
<svg version="1.1" id="Layer_2" xmlns="http://www.w3.org/2000/svg" xmlns:xlink="http://www.w3.org/1999/xlink" x="0px" y="0px"
	 viewBox="0 0 20 20" style="enable-background:new 0 0 20 20;" xml:space="preserve">
<style type="text/css">
	.st0{fill:#EF3F36;}
	.st1{fill:#FCD900;}
	.st2{fill:#61BC5B;}
	.st3{fill:#5AB055;}
	.st4{fill:#FFFFFF;}
	.st5{fill:url(#SVGID_1_);}
	.st6{fill:#EACA05;}
	.st7{fill:#DF3A32;}
</style>
<g id="Symbols">
	<g>
		<g id="chrome">
			<path id="Shape" class="st0" d="M10,0c0,0,5.9-0.3,9,5.6H9.5c0,0-1.8-0.1-3.3,2.1c-0.4,0.9-0.9,1.8-0.4,3.7c-0.8-1.3-4.1-7-4.1-7
				S4,0.2,10,0L10,0z"/>
			<path class="st1" d="M18.7,15c0,0-2.7,5.2-9.4,5c0.8-1.4,4.8-8.2,4.8-8.2s0.9-1.5-0.2-3.9c-0.6-0.8-1.1-1.7-3-2.2
				c1.5,0,8.1,0,8.1,0S21.4,9.7,18.7,15z"/>
			<path class="st2" d="M1.3,15c0,0-3.2-4.9,0.4-10.6c0.8,1.4,4.8,8.2,4.8,8.2s0.8,1.6,3.5,1.8c1-0.1,2.1-0.1,3.4-1.5
				c-0.7,1.3-4.1,7-4.1,7S4.5,20,1.3,15L1.3,15z"/>
			<path class="st3" d="M9.3,20l1.3-5.6c0,0,1.5-0.1,2.7-1.5C12.6,14.3,9.3,20,9.3,20z"/>
			<path class="st4" d="M5.5,10c0-2.4,2-4.4,4.5-4.4s4.5,2,4.5,4.4c0,2.4-2,4.4-4.5,4.4C7.5,14.5,5.5,12.5,5.5,10z"/>
			
				<linearGradient id="SVGID_1_" gradientUnits="userSpaceOnUse" x1="-247.804" y1="375.2517" x2="-247.804" y2="374.2889" gradientTransform="matrix(7.4168 0 0 -7.3879 1847.8711 2778.7378)">
				<stop  offset="0" style="stop-color:#86BBE5"/>
				<stop  offset="1" style="stop-color:#1072BA"/>
			</linearGradient>
			<path class="st5" d="M6.3,10c0-2,1.7-3.7,3.7-3.7c2,0,3.7,1.7,3.7,3.7c0,2-1.7,3.7-3.7,3.7C7.9,13.7,6.3,12.1,6.3,10z"/>
			<path class="st6" d="M19,5.6l-5.5,1.6c0,0-0.8-1.2-2.6-1.6C12.4,5.6,19,5.6,19,5.6z"/>
			<path class="st7" d="M5.7,11.2c-0.8-1.3-4-6.8-4-6.8l4.1,4c0,0-0.4,0.9-0.3,2.1L5.7,11.2L5.7,11.2z"/>
		</g>
	</g>
</g>
</svg>
