<?xml version="1.0" encoding="utf-8"?>
<!-- Generator: Adobe Illustrator 23.0.0, SVG Export Plug-In . SVG Version: 6.00 Build 0)  -->
<svg version="1.1" id="Layer_2" xmlns="http://www.w3.org/2000/svg" xmlns:xlink="http://www.w3.org/1999/xlink" x="0px" y="0px"
	 viewBox="0 0 21 21" style="enable-background:new 0 0 21 21;" xml:space="preserve">
<style type="text/css">
	.st0{fill-rule:evenodd;clip-rule:evenodd;fill:#B1B4BE;}
</style>
<path class="st0" d="M20,11c0.3-2.9-0.7-5.8-2.9-8C13.2-1,6.8-1,2.9,2.9s-3.9,10.2,0,14.1c2.2,2.2,5.2,3.2,8,2.9l-0.8-2.5
	c-2,0-3.9-0.7-5.4-2.2c-2.9-2.9-2.9-7.7,0-10.6s7.7-2.9,10.6,0c1.5,1.5,2.2,3.5,2.2,5.4L20,11z M9.1,8.6c-0.1,0-0.2,0-0.3,0
	C8.5,8.7,8.4,9,8.5,9.3l3.7,11.1c0,0.1,0.1,0.2,0.3,0.3c0.3,0.1,0.5,0,0.7-0.3l2.1-4.8c0.1-0.1,0.1-0.2,0.3-0.3l4.8-2.1
	c0.1-0.1,0.2-0.2,0.3-0.3c0.1-0.3-0.1-0.5-0.3-0.6L9.1,8.6z"/>
</svg>
