<?xml version="1.0" encoding="utf-8"?>
<!-- Generator: Adobe Illustrator 23.0.0, SVG Export Plug-In . SVG Version: 6.00 Build 0)  -->
<svg version="1.1" id="Layer_2" xmlns="http://www.w3.org/2000/svg" xmlns:xlink="http://www.w3.org/1999/xlink" x="0px" y="0px"
	 viewBox="0 0 20 20" style="enable-background:new 0 0 20 20;" xml:space="preserve">
<style type="text/css">
	.st0{fill:#110070;}
	.st1{fill:url(#ellipse33_1_);}
	.st2{fill:url(#path42_1_);}
	.st3{fill:url(#path53_1_);}
	.st4{fill:url(#path62_1_);}
	.st5{fill:url(#path73_1_);}
	.st6{fill:url(#path82_1_);}
	.st7{fill:url(#path91_1_);}
	.st8{fill:url(#path108_1_);}
	.st9{fill:url(#path117_1_);}
	.st10{opacity:0.5;fill:url(#ellipse132_1_);enable-background:new    ;}
	.st11{fill:url(#path159_1_);}
	.st12{fill:url(#path166_1_);}
	.st13{fill:url(#path179_1_);}
	.st14{fill:url(#path186_1_);}
	.st15{fill:url(#path193_1_);}
	.st16{fill:url(#path200_1_);}
	.st17{fill:url(#path207_1_);}
	.st18{fill:url(#path214_1_);}
	.st19{fill:url(#path221_1_);}
	.st20{fill:#A40000;}
	.st21{fill:url(#path232_1_);}
	.st22{fill:url(#path241_1_);}
	.st23{fill:url(#path250_1_);}
	.st24{fill:url(#path265_1_);}
	.st25{fill:url(#path274_1_);}
	.st26{fill:url(#path281_1_);}
	.st27{fill:url(#path288_1_);}
	.st28{fill:url(#path307_1_);}
	.st29{fill:url(#path314_1_);}
	.st30{fill:url(#path321_1_);}
	.st31{fill:url(#path328_1_);}
	.st32{fill:url(#path335_1_);}
	.st33{fill:url(#path342_1_);}
	.st34{fill:url(#path349_1_);}
	.st35{fill:url(#path356_1_);}
	.st36{fill:url(#path363_1_);}
	.st37{fill:url(#path370_1_);}
	.st38{fill:url(#path377_1_);}
	.st39{fill:url(#path384_1_);}
	.st40{fill:url(#path391_1_);}
	.st41{fill:url(#path398_1_);}
	.st42{fill:url(#path405_1_);}
	.st43{fill:url(#path412_1_);}
	.st44{fill:url(#path419_1_);}
	.st45{fill:url(#path426_1_);}
	.st46{fill:url(#path433_1_);}
	.st47{fill:url(#path440_1_);}
	.st48{fill:url(#path458_1_);}
	.st49{fill:url(#path475_1_);}
	.st50{fill:url(#path492_1_);}
	.st51{fill:url(#path509_1_);}
	.st52{fill:url(#path526_1_);}
	.st53{fill:url(#path543_1_);}
	.st54{fill:url(#path560_1_);}
	.st55{fill:url(#path577_1_);}
	.st56{fill:url(#path608_1_);}
	.st57{fill:url(#path616_1_);}
	.st58{fill:url(#path623_1_);}
	.st59{fill:url(#path630_1_);}
</style>
<g id="Symbols">
	<g>
		<g id="mozilla-firefox-1">
			<g id="Globe" transform="translate(0.368406, 0.009562)">
				<ellipse id="ellipse10" class="st0" cx="9.6" cy="9.7" rx="9.6" ry="9.6"/>
				
					<radialGradient id="ellipse33_1_" cx="-271.6213" cy="409.0033" r="0.9648" gradientTransform="matrix(18.8318 0 0 -18.8318 5124.8647 7703.4883)" gradientUnits="userSpaceOnUse">
					<stop  offset="0" style="stop-color:#67C5D5"/>
					<stop  offset="0.16" style="stop-color:#66C2D3"/>
					<stop  offset="0.28" style="stop-color:#62B9CE"/>
					<stop  offset="0.385" style="stop-color:#5CA8C6"/>
					<stop  offset="0.483" style="stop-color:#5392BA"/>
					<stop  offset="0.576" style="stop-color:#4874AA"/>
					<stop  offset="0.665" style="stop-color:#3A5097"/>
					<stop  offset="0.749" style="stop-color:#2A2781"/>
					<stop  offset="0.815" style="stop-color:#1B006D"/>
					<stop  offset="1" style="stop-color:#596AAD"/>
				</radialGradient>
				<ellipse id="ellipse33" class="st1" cx="9.6" cy="9.7" rx="9.4" ry="9.4"/>
				
					<radialGradient id="path42_1_" cx="-207.6423" cy="320.5424" r="2.5012" gradientTransform="matrix(3.6405 0 0 -3.6405 765.6474 1169.2517)" gradientUnits="userSpaceOnUse">
					<stop  offset="0" style="stop-color:#0F80BC"/>
					<stop  offset="0.338" style="stop-color:#0A5F9E"/>
					<stop  offset="1" style="stop-color:#00145A"/>
				</radialGradient>
				<path id="path42" class="st2" d="M8.3,14.5c0-0.1-0.1-0.2-0.2-0.2c-0.1,0-0.2,0.1-0.3-0.2c-0.2,0.1-0.3,0-0.3,0s-0.2,0-0.3,0.3
					C7.1,14.5,6.8,15,7,14.5c0.1-0.5-0.2,0-0.2,0.2c-0.1,0.1-0.1,0.1-0.1-0.4c-0.2-0.1-0.3-0.5-0.2-0.5c-0.1-0.2,0-0.4,0.1-0.4
					c0.1,0,0.3-0.2,0.3-0.3c0-0.1,0.1,0,0.1-0.4c0-0.4,0.1-0.5,0.2-0.2c0,0.3,0.2-0.1,0.2-0.3c0-0.2,0-0.5,0.1-0.3
					c-0.1-0.5,0-0.5,0.1-0.2c0.2,0,0.2,0.1,0.2,0.1C7.9,11.9,8,12.1,8,12.2c0.2-0.2,0.4,0,0.4,0s0.1,0,0.1,0.2s0.3,0.1,0.2-0.1
					c0.2-0.1,0.4,0.2,0.5,0.4s-0.1,0.4,0,0.5c0.2,0.1,0.1,0.4,0.1,0.4s0.4,0.2,0.1,0.4l-0.1,0.2c0,0,0.2,0.2,0.2,0.1
					c0.1-0.1,0.1,0.1,0.1,0.1c0,0,0,0.2,0.3,0.3c0.2,0.1,0.4,0.4,0.1,0.4s-0.3,0-0.3,0.1s-0.4,0.2-0.6,0c-0.2,0.1-0.5,0-0.4-0.2
					c-0.2,0.1-0.3-0.2-0.2-0.3c0.1-0.1-0.1-0.2-0.1-0.1c-0.1,0.2-0.4,0.2-0.4,0C8.1,14.5,8.2,14.5,8.3,14.5
					C8.3,14.6,8.3,14.5,8.3,14.5z"/>
				<g id="g44" transform="translate(15.285307, 7.058403)">
					
						<radialGradient id="path53_1_" cx="346.4713" cy="-387.2336" r="20.8853" gradientTransform="matrix(0.4359 0 0 -0.5 -156.5948 -199.0481)" gradientUnits="userSpaceOnUse">
						<stop  offset="0" style="stop-color:#0F80BC"/>
						<stop  offset="0.338" style="stop-color:#0A5F9E"/>
						<stop  offset="1" style="stop-color:#00145A"/>
					</radialGradient>
					<path id="path53" class="st3" d="M0.8,0.1c0.1,0.1,0.2,0,0.2,0C1,0.1,1,0.1,1.1,0c0,0,0.2,0.1,0.2,0.3c-0.1,0-0.2,0.2-0.2,0.2
						S1,0.6,0.9,0.5c-0.1,0-0.1,0-0.1,0S0.5,0.4,0.7,0.4s0-0.1-0.1-0.1s0-0.1,0.1-0.1C0.6,0.1,0.7,0,0.8,0.1z"/>
					
						<radialGradient id="path62_1_" cx="168.4698" cy="-254.0226" r="15.2076" gradientTransform="matrix(0.5988 0 0 -0.5988 -106.432 -156.8385)" gradientUnits="userSpaceOnUse">
						<stop  offset="0" style="stop-color:#0F80BC"/>
						<stop  offset="0.338" style="stop-color:#0A5F9E"/>
						<stop  offset="1" style="stop-color:#00145A"/>
					</radialGradient>
					<path id="path62" class="st4" d="M0.1,0.5C0,0.6,0.1,0.7,0.1,0.7s0.2,0,0.2,0s0.1,0.1,0,0.1c-0.1,0-0.2,0,0,0.1
						C0.5,1,0.6,1,0.6,0.9c0,0,0.1-0.2,0.1-0.2c0-0.1-0.1-0.1,0-0.2s0-0.2,0-0.2s-0.1,0-0.2,0.1c0,0.1-0.1,0-0.2,0c0,0,0,0.1,0,0.1
						l0-0.1C0.3,0.5,0.1,0.5,0.1,0.5z"/>
				</g>
				
					<radialGradient id="path73_1_" cx="-238.5436" cy="361.3051" r="1.7012" gradientTransform="matrix(5.8801 0 0 -5.8801 1412.5297 2127.6362)" gradientUnits="userSpaceOnUse">
					<stop  offset="0" style="stop-color:#0F80BC"/>
					<stop  offset="0.264" style="stop-color:#0B629B"/>
					<stop  offset="0.844" style="stop-color:#031747"/>
					<stop  offset="1" style="stop-color:#00022F"/>
				</radialGradient>
				<path id="path73" class="st5" d="M13.9,7.7C13.9,7.7,13.9,7.6,13.9,7.7c0,0.1,0.2,0.1,0.3,0.1c0.2-0.3-0.2-0.4-0.4-0.3
					c-0.2,0.1-0.3-0.1-0.1-0.2c0.2,0,0.2-0.4,0-0.4c0.2-0.1-0.1-0.4-0.3-0.4c0-0.3-0.4-0.5-0.5-0.4c-0.2,0.1-0.2,0.1-0.4-0.1
					c-0.2-0.2-0.4,0.3-0.2,0.5c0.2,0.2,0.1,0.5,0.1,0.5c0,0-0.1,0.1-0.1,0.2C12.1,7.3,12,7,11.9,6.9c-0.1,0.1-0.2,0.2-0.2,0.2l0-0.3
					c0,0-0.6-0.4-0.9-0.3c-0.2,0.1-0.3,0.6-0.1,0.7s-0.3,0.3,0.2,0.8c0.5,0.6,0.7,0.6,0.8,0.5c0,0,0.1-0.1,0.1-0.1c0,0,0,0,0,0.1
					c0.1,0.2-0.3,0.3-0.4,0.6c-0.1,0.3,0,0.8,0.3,0.8c0-0.3,0.5-0.2,0.3,0.1c-0.3,0.3-0.1,0.3-0.1,0.3s0,0.5,0.4,0.3
					c0,0,0,0.1,0,0.1c-0.1,0-0.4-0.1-0.5,0.1c-0.1,0.2-0.5-0.1-0.7,0s-0.6,0.5-0.5,0.7c0.2-0.1,0.4,0.4,0.1,0.3
					c-0.3-0.1-0.3,0.1-0.3,0.1s-0.3,0.3,0,0.6c-0.1,0-0.3,0.2-0.3,0.5c0,0-0.1,0-0.2,0.3c-0.5,0.1-0.4,0.2,0.3,0.1
					c-0.3,0.1,0.2,0.2,0.4,0.2c0.2,0,0.8,0.3,0.4,0.3c-0.4,0-0.3,0.2,0.2,0.2c0.5,0,0.5,0.1,0.5,0.1c0.1,0,0.4,0.3,0.4,0.4
					c0,0.1,0.3,0.3,0.6,0.1c0,0.2,0.6,0,0.7-0.2c0.7,0.1,0.7,0,0.5-0.1c-0.3-0.1-0.9-0.5-0.3-0.3c0.7,0.2,0-0.2-0.2-0.3
					c-0.4-0.1-0.4-0.4-0.4-0.4s0.2-0.1,0-0.4c0.4-0.1,0.2-0.2,0.2-0.4s0.3-0.3,0.3-0.3c0,0,0.1,0,0,0c-0.1,0,0,0.3,0.1,0.3
					c0.4,0,0.3-0.4,0-0.5c-0.2-0.1,0-0.4,0.1-0.2c0.2,0.2,0.5,0,0.4-0.2c0.2,0.1,0.3-0.3,0.2-0.6c0.3-0.2,0.3-0.7,0.1-0.8
					c-0.1-0.1-0.2-0.1-0.2-0.1c0.1-0.1,0.3-0.1,0.3,0c0.1,0.1,0.4-0.2,0.4-0.5c0.1,0.1,0.3-0.6,0.2-0.8c0.4-0.5,0.3-0.6,0.2-0.5
					c-0.2,0.3-0.8,0.6-0.3,0.1c0.5-0.5-0.1-0.1-0.3,0c-0.2,0.3-0.5,0.2-0.5,0.2s0-0.2-0.3-0.2C14.3,8.1,14,8.2,14,8.1
					C13.9,8,13.9,7.8,13.9,7.7z"/>
				
					<radialGradient id="path82_1_" cx="-80.9119" cy="136.4337" r="6.5339" gradientTransform="matrix(1.3936 0 0 -1.3936 122.4903 192.4597)" gradientUnits="userSpaceOnUse">
					<stop  offset="0" style="stop-color:#0F80BC"/>
					<stop  offset="0.338" style="stop-color:#0A5F9E"/>
					<stop  offset="1" style="stop-color:#00145A"/>
				</radialGradient>
				<path id="path82" class="st6" d="M9,3.8C8.9,4,9.2,4.2,9.3,4.2c0.1-0.1,0.3-0.2,0.3-0.2s0.2,0.2,0.1,0.3
					C9.7,4.3,9.3,4.4,9.8,4.4c0.5-0.1,0.5-0.1,0.5-0.2c0-0.1,0-0.4,0.1-0.4c0-0.2-0.3-0.1-0.2-0.3C10.3,3.3,10.1,3,10.1,3
					S9.9,3.1,9.9,3.3S9.7,3.4,9.6,3.4c0,0.1,0,0.2,0,0.2L9.4,3.5C9.4,3.5,9,3.7,9,3.8z"/>
				
					<radialGradient id="path91_1_" cx="191.9442" cy="-239.8031" r="15.2091" gradientTransform="matrix(0.5988 0 0 -0.5988 -105.2025 -141.2667)" gradientUnits="userSpaceOnUse">
					<stop  offset="0" style="stop-color:#0F80BC"/>
					<stop  offset="0.338" style="stop-color:#0A5F9E"/>
					<stop  offset="1" style="stop-color:#00145A"/>
				</radialGradient>
				<path id="path91" class="st7" d="M9.7,11.9c-0.1,0.1,0,0.2,0.1,0.2s0.2,0,0.2,0s0.1,0.1,0,0.1c-0.1,0-0.2,0,0,0.1
					c0.2,0.1,0.3,0.1,0.3,0s0.1-0.2,0.1-0.2c0-0.1-0.1-0.1,0-0.2c0.1,0,0-0.2,0-0.2s-0.1,0-0.2,0.1c0,0.1-0.1,0-0.2,0
					c0,0,0,0.1,0,0.1l0-0.1C10,11.8,9.8,11.8,9.7,11.9z"/>
				<g id="g93" transform="translate(2.533239, 0.129117)">
					
						<linearGradient id="path108_1_" gradientUnits="userSpaceOnUse" x1="-244.1588" y1="350.593" x2="-243.6934" y2="350.5442" gradientTransform="matrix(6.3152 0 0 -5.1589 1551.0278 1811.2673)">
						<stop  offset="0" style="stop-color:#0F80BC"/>
						<stop  offset="0.338" style="stop-color:#0A5F9E"/>
						<stop  offset="1" style="stop-color:#00145A"/>
					</linearGradient>
					<path id="path108" class="st8" d="M7.3,0.1c-0.1,0,0.1,0.6,0.1,0.6S7.4,1,7.4,1c0.1,0,0.5,0.1,0.7,0.4C8.3,1.7,8.2,1.8,8,1.7
						C7.9,1.6,7.9,1.9,7.9,1.9S8.4,2,8,2C7.6,2,8.3,2.3,8.3,2.3c0,0-0.1,0.2-0.1,0.2s-0.4,0-0.1,0.2C9.1,3.1,8,3,8,3L7.9,3.2
						l0.3,0.4l0.2,0.2c0,0,0.5-0.2,0.6-0.2c0.1,0,0.5-0.3,0.5-0.3s0.1,0.1,0-0.1C9.4,3,9.8,3.1,9.9,3.2l0.7,0.3c0,0,0,0,0,0.1
						c0.1,0.1-0.1,0.2-0.1,0.4c0,0.2,0.2,0.4,0.3,0.4c0-0.2,0.3-0.2,0.2,0c-0.1,0.2,0,0.2,0,0.2s0.1,0.2,0.3,0.1
						c0,0.1,0,0.2,0.2,0.2c0,0,0,0.1,0.1,0.1c0,0.3,0.1,0.3,0.1-0.1c0,0.2,0.2-0.1,0.2-0.2c0-0.1,0.3-0.4,0.2-0.2
						c-0.1,0.2,0.8,0.3,0.9,0c0.1-0.3,0.4-0.4,0.4-0.5c0,0-0.7-0.1-0.7-0.1c0.1,0,0.2-0.2,0.2-0.3c0.1,0,0.1-0.4,0-0.5
						c0.2-0.4,0.1-0.4,0-0.3C13,3.1,12.6,3.4,12.9,3c0.3-0.4-0.1,0-0.2,0c-0.1,0.2-0.3,0.2-0.3,0.2s0-0.1-0.2-0.1
						c0-0.3-0.1-0.1-0.2-0.2c0,0-0.1-0.1-0.1-0.2c0.2,0.1,0.4,0.2,0.4,0c0-0.1,0.3,0.1,0.4,0.1L13,2.8l0.4-0.3
						C10.6-0.1,7.3,0.1,7.3,0.1z"/>
					
						<linearGradient id="path117_1_" gradientUnits="userSpaceOnUse" x1="-248.9978" y1="341.811" x2="-249.2269" y2="341.296" gradientTransform="matrix(7.0888 0 0 -4.6545 1768.0735 1593.9634)">
						<stop  offset="0" style="stop-color:#0F80BC"/>
						<stop  offset="0.338" style="stop-color:#0A5F9E"/>
						<stop  offset="1" style="stop-color:#00145A"/>
					</linearGradient>
					<path id="path117" class="st9" d="M3,0.9C1.3,1.7,0,3.2,0,3.2s0.2,0.3,0.2,0.3c0.1,0-0.4,0.9-0.1,1C0.5,4.6,1.4,4,1.2,4
						C1.1,4.1,1.3,3.7,1.3,3.7s0.5-0.2,0.2,0c-0.3,0.2,0.4,0,0.4,0.1C1.9,3.8,2,4,2,4S1.8,4.2,2,4.1c1-0.3,0.1,0.3,0.1,0.3l0,0.2
						l0.4,0.1l0.3,0c0,0,0.2-0.4,0.3-0.5C3.3,4,3.4,3.6,3.4,3.6s0.1,0,0-0.1s0.2-0.3,0.3-0.2l0.7-0.2c0,0,0,0,0.1,0
						c0.2,0,0.1,0.3,0.2,0.4C4.7,3.6,5,3.7,5.1,3.6C5,3.5,5.3,3.2,5.3,3.4c0,0.2,0.1,0.1,0.1,0.1s0.2-0.4,0.3-0.7
						c0,0.1,0.5-0.5,0.3-0.8C5.9,1.8,6.1,1.5,6.1,1.5c0,0-0.1,0.1-0.1,0.1c0.1,0-0.3,0.1-0.3-0.3c0-0.5-0.1,0-0.2,0.2
						c0.1,0.2,0.7-1,0.7-1L7.1,0C7.1,0,5.3-0.1,3,0.9z"/>
				</g>
				
					<linearGradient id="ellipse132_1_" gradientUnits="userSpaceOnUse" x1="-258.0815" y1="366.6045" x2="-258.0815" y2="367.2174" gradientTransform="matrix(9.9698 0 0 -6.4731 2582.4446 2378.6882)">
					<stop  offset="1.400000e-02" style="stop-color:#000000;stop-opacity:0"/>
					<stop  offset="0.65" style="stop-color:#C4E0E3;stop-opacity:0.2"/>
					<stop  offset="0.822" style="stop-color:#C4E0E3"/>
					<stop  offset="0.85" style="stop-color:#CDE5E8"/>
					<stop  offset="0.944" style="stop-color:#E8F4F7"/>
					<stop  offset="1" style="stop-color:#F2FAFC"/>
				</linearGradient>
				<ellipse id="ellipse132" class="st10" cx="9.4" cy="3.8" rx="5" ry="3.2"/>
			</g>
			<g id="Fox" transform="translate(0.024916, 1.602006)">
				<g id="g146" transform="translate(0.429363, 0.000000)">
					
						<linearGradient id="path159_1_" gradientUnits="userSpaceOnUse" x1="-272.239" y1="405.6876" x2="-272.114" y2="405.7687" gradientTransform="matrix(19.4952 0 0 -17.7343 5316.9761 7202.1499)">
						<stop  offset="0" style="stop-color:#DF731B"/>
						<stop  offset="0.545" style="stop-color:#DF731B"/>
						<stop  offset="0.701" style="stop-color:#EC8811"/>
						<stop  offset="0.859" style="stop-color:#F4950B"/>
						<stop  offset="1" style="stop-color:#F79A09"/>
					</linearGradient>
					<path id="path159" class="st11" d="M19.5,5.4l-0.2,1.5c0,0-0.3-2.7-0.7-3.8c-0.6-1.6-0.9-1.6-0.9-1.6C18,2.6,18,3.2,18,3.2
						s-0.7-2-2.7-2.6c-2.3-0.8-3.5-0.5-3.5-0.5c0,0,2.4,0.4,2.8,1c0,0-1,0-2,0.3c0,0,3.7,0.5,4.4,4.2c0,0-0.4-0.9-0.9-1
						c0.3,1,0.2,2.9-0.1,3.9c0,0.1-0.1-0.5-0.7-0.8c0.2,1.4,0,3.7-1,4.3c-0.1,0,0.6-2.2,0.1-1.4c-2.9,4.4-6.3,1.8-7.7,0.9
						c1.1,0.3,2.3,0.1,3-0.4c0.7-0.5,1.1-0.8,1.5-0.7c0.4,0.1,0.6-0.3,0.3-0.6c-0.3-0.3-1-0.8-1.9-0.5C9,9.4,8.2,10.1,6.9,9.4
						C5.9,8.7,5.9,8.2,5.9,7.9c0-0.3,0.3-0.8,0.8-0.7c0.5,0.1,0.2-0.2,0.7,0c0.1,0.1,0-0.7-0.2-1.1c0.4-0.8,1.6-1,1.7-1.1
						C9.1,4.8,9,4.7,9.1,4.5C9.1,4.3,9.1,3.9,7.8,4c-0.6,0.1-1-0.8-1.2-1c0-0.3,0.1-0.5,0.2-0.7C6.9,2.1,7,1.9,7.1,1.8
						c0,0,0.1-0.1,0.1-0.1c0.2-0.2,0.5-0.4,0.8-0.6c0.2-0.1-1.8,0-2.6,1.1c-0.2,0-0.6,0-0.9,0c-0.5,0-0.8,0-1.1,0.1
						c-0.1,0-0.1,0-0.2,0c-0.3-0.3-1.1-1-1.1-2c0,0-1.2,0.9-1,3.4c0,1.4-0.4,1-0.6,1.7C0.2,5.8,0.4,6,0.4,6.1c0,0,0.3-0.3,0.3-0.3
						S-1.1,8.9,1.2,13c2,3.5,5.5,5,9,4.7c0.6,0,1.2-0.1,1.9-0.3C20.4,15.4,19.5,5.4,19.5,5.4z"/>
				</g>
				
					<linearGradient id="path166_1_" gradientUnits="userSpaceOnUse" x1="-208.4348" y1="300.4162" x2="-207.9171" y2="300.3653" gradientTransform="matrix(3.6561 0 0 -3.201 768.466 966.0627)">
					<stop  offset="1.100000e-02" style="stop-color:#941403"/>
					<stop  offset="0.897" style="stop-color:#E85C0A"/>
				</linearGradient>
				<path id="path166" class="st12" d="M7,2.9c0,0,0.4,1,1.2,1c1.5,0,1.6,0,1.6,0.2c0,0.6-0.2,0.8-0.4,0.8S7.8,5.9,7.7,6.1
					C7.7,6.3,6.1,3.8,6.1,3.8L7,2.9z"/>
				
					<linearGradient id="path179_1_" gradientUnits="userSpaceOnUse" x1="-134.0566" y1="79.9148" x2="-130.3608" y2="79.1853" gradientTransform="matrix(1.8486 0 0 -1.1763 251.4144 97.9436)">
					<stop  offset="1.100000e-02" style="stop-color:#941403"/>
					<stop  offset="0.136" style="stop-color:#A32104"/>
					<stop  offset="0.498" style="stop-color:#C84107"/>
					<stop  offset="0.789" style="stop-color:#DF5509"/>
					<stop  offset="0.972" style="stop-color:#E85C0A"/>
				</linearGradient>
				<path id="path179" class="st13" d="M7.8,4c0,0,0.5,0.6,0.1,0.9C7.5,5.2,8.6,5.2,9,5s0.6-0.6,0.7-0.6c0,0,0.1-0.5-0.7-0.3
					C8.4,4.2,8.2,4.2,7.8,4z"/>
				
					<linearGradient id="path186_1_" gradientUnits="userSpaceOnUse" x1="-176.7393" y1="184.9625" x2="-176.5302" y2="185.1052" gradientTransform="matrix(2.6062 0 0 -1.6871 468.1419 317.6755)">
					<stop  offset="0" style="stop-color:#F2C8A9"/>
					<stop  offset="1" style="stop-color:#FFFFCC"/>
				</linearGradient>
				<path id="path186" class="st14" d="M9.4,4.9c0.1-0.1,0.3-0.2,0.3-0.5c-0.1,0-0.1,0-0.1,0C8.5,5.6,8.4,4.8,7.8,4.9
					C7.2,5.1,7.1,5.3,7.1,5.3c0,0,0,0,0,0c0.2,0.1,0.3,0.3,0.4,0.6c0.1,0.1,0.2,0.2,0.2,0.2C7.8,5.9,9.3,5,9.4,4.9z"/>
				
					<linearGradient id="path193_1_" gradientUnits="userSpaceOnUse" x1="-267.9986" y1="394.2962" x2="-267.4027" y2="394.2644" gradientTransform="matrix(15.3789 0 0 -11.9166 4127.438 4710.5034)">
					<stop  offset="0" style="stop-color:#B30000"/>
					<stop  offset="1" style="stop-color:#DF731B"/>
				</linearGradient>
				<path id="path193" class="st15" d="M1,5.9c-0.2,0.5-1.7,3,0.7,7.1c2.4,4.1,6.4,5.4,10.6,4.5c1.2-0.3,2.6-1.2,3.4-1.9
					c-0.6-1.4-0.2-1.4-0.5-1.2c-3.3,2.1-6,0-8.1-0.2C-0.5,13.2,1,5.8,1,5.9L1,5.9z"/>
				
					<linearGradient id="path200_1_" gradientUnits="userSpaceOnUse" x1="-227.8737" y1="148.2051" x2="-226.894" y2="147.0335" gradientTransform="matrix(4.8776 0 0 -1.4633 1119.3999 227.3762)">
					<stop  offset="0" style="stop-color:#941403"/>
					<stop  offset="1" style="stop-color:#DF731B"/>
				</linearGradient>
				<path id="path200" class="st16" d="M7.3,11.6c0.7,0.2,2.3,0,2.9-0.5c0.5-0.3,0.8-0.6,1.1-0.7c-0.5-0.3-0.5,0.1-1.6,0.4
					c-2.2,0.5-3.3-0.6-3.3-0.6C6.6,11.1,7.1,11.5,7.3,11.6C7.3,11.6,7.3,11.6,7.3,11.6z"/>
				
					<linearGradient id="path207_1_" gradientUnits="userSpaceOnUse" x1="-215.7241" y1="362.5354" x2="-214.5676" y2="362.4985" gradientTransform="matrix(4.0231 0 0 -6.2019 868.5794 2260.8035)">
					<stop  offset="5.600000e-02" style="stop-color:#B30000"/>
					<stop  offset="1" style="stop-color:#DE5C01"/>
				</linearGradient>
				<path id="path207" class="st17" d="M4.9,15.6c0,0-1.9-2.1-2.4-4.4c-0.8-0.7-1.3-1.3-1.7-1.8C1,11.1,1.9,13.6,4.9,15.6z"/>
				
					<linearGradient id="path214_1_" gradientUnits="userSpaceOnUse" x1="-120.9321" y1="340.7252" x2="-120.0183" y2="338.98" gradientTransform="matrix(1.7322 0 0 -4.6611 211.7766 1598.9958)">
					<stop  offset="5.600000e-02" style="stop-color:#DE7210"/>
					<stop  offset="1" style="stop-color:#F6C08F"/>
				</linearGradient>
				<path id="path214" class="st18" d="M3.3,13.7c0,0-1.3-1.8-0.8-3.4C3,8.9,2.4,9.8,2.1,10.1c-0.3,0.3-0.5-0.9-0.5-1v0
					C1.7,9,1.1,11.9,3.3,13.7z"/>
				
					<linearGradient id="path221_1_" gradientUnits="userSpaceOnUse" x1="-139.2702" y1="361.2398" x2="-139.4724" y2="359.7892" gradientTransform="matrix(1.9489 0 0 -6.0733 273.1486 2202.2473)">
					<stop  offset="5.600000e-02" style="stop-color:#DE7210"/>
					<stop  offset="1" style="stop-color:#F6C08F"/>
				</linearGradient>
				<path id="path221" class="st19" d="M1.4,12.1c0,0-0.3-3.7,0.6-4.2c1.5-0.8,0.1-0.6-0.3-0.4C1.3,7.7,1.4,6.2,1.4,6
					C1.5,5.9-0.1,7.5,1.4,12.1z"/>
				<path id="path223" class="st20" d="M7.8,1.2c0,0-1.2,1.2-1.1,1.2s0,1.5,0.1,1.9c0.1,0.2,0.6,1.2,0.2,1C6.6,5.1,6.9,5.1,6.9,5.2
					v0C6.9,5.2,6.1,3.5,7.8,1.2z"/>
				
					<linearGradient id="path232_1_" gradientUnits="userSpaceOnUse" x1="-162.915" y1="312.0925" x2="-163.3249" y2="312.7863" gradientTransform="matrix(2.323 0 0 -3.5335 381.0482 1106.2185)">
					<stop  offset="1.100000e-02" style="stop-color:#941403"/>
					<stop  offset="0.472" style="stop-color:#E85C0A"/>
					<stop  offset="1" style="stop-color:#F9BD5F"/>
				</linearGradient>
				<path id="path232" class="st21" d="M2.3,0.3c0,0-1.2,0.9-1,3.5C2.3,3,3.6,2.4,3.6,2.4C3.4,2.2,2.4,1.4,2.3,0.3z"/>
				
					<linearGradient id="path241_1_" gradientUnits="userSpaceOnUse" x1="-192.4131" y1="334.7326" x2="-191.6636" y2="335.4211" gradientTransform="matrix(3.0443 0 0 -4.3771 592.1533 1469.1233)">
					<stop  offset="0.197" style="stop-color:#DE7210"/>
					<stop  offset="0.843" style="stop-color:#F9BD5F"/>
					<stop  offset="1" style="stop-color:#FFFCCF"/>
				</linearGradient>
				<path id="path241" class="st22" d="M5.3,3.2l1.8,2.3C6.7,3.2,7.1,1.8,8.4,1.1C8.6,1,5.6,1.1,5.3,3.2z"/>
				
					<linearGradient id="path250_1_" gradientUnits="userSpaceOnUse" x1="-230.9703" y1="356.8117" x2="-230.5204" y2="355.9933" gradientTransform="matrix(5.1421 0 0 -5.6796 1192.9385 2034.3168)">
					<stop  offset="1.700000e-02" style="stop-color:#941403"/>
					<stop  offset="0.5" style="stop-color:#E35100"/>
					<stop  offset="1" style="stop-color:#DF731B"/>
				</linearGradient>
				<path id="path250" class="st23" d="M4,8.8c0.3-2,3.1-1.7,3.1-1.7C7,7.2,6.5,7.3,6.4,7.7c-0.4,1.3,0,4,2.8,5.1
					C9.5,12.9,3.6,11.8,4,8.8z"/>
				
					<linearGradient id="path265_1_" gradientUnits="userSpaceOnUse" x1="-160.1851" y1="176.1871" x2="-159.9308" y2="175.8637" gradientTransform="matrix(2.2713 0 0 -1.6264 372.3341 291.6761)">
					<stop  offset="0" style="stop-color:#EEA272"/>
					<stop  offset="0.186" style="stop-color:#EFA777"/>
					<stop  offset="0.406" style="stop-color:#F2B585"/>
					<stop  offset="0.643" style="stop-color:#F6CD9C"/>
					<stop  offset="0.89" style="stop-color:#FCEEBB"/>
					<stop  offset="1" style="stop-color:#FFFFCC"/>
				</linearGradient>
				<path id="path265" class="st24" d="M9.7,4.5C9.7,4.5,9.7,4.5,9.7,4.5C9.6,4.5,9.5,4.7,9.2,5C8.6,5.4,8.3,5.3,7.9,5.4
					c-0.2,0-0.4,0.2-0.5,0.3c0.1,0.1,0.1,0.2,0.1,0.3c0.1,0.1,0.2,0.2,0.2,0.2C7.8,5.9,9.3,5,9.4,4.9C9.4,4.9,9.6,4.8,9.7,4.5z"/>
				
					<linearGradient id="path274_1_" gradientUnits="userSpaceOnUse" x1="-226.5168" y1="294.8145" x2="-225.9617" y2="293.9283" gradientTransform="matrix(4.7803 0 0 -3.07 1088.1946 911.3548)">
					<stop  offset="0.197" style="stop-color:#DF731B"/>
					<stop  offset="0.843" style="stop-color:#F9BD5F"/>
					<stop  offset="1" style="stop-color:#FFFCCF"/>
				</linearGradient>
				<path id="path274" class="st25" d="M7.9,7.5c0-0.4,0-1.4-0.5-1.9C7.1,5.3,7,4.9,7,4.5C3.4,5.8,2.9,7.6,3.2,7.5
					C6.1,7.1,6.9,7,7.9,7.5z"/>
				
					<linearGradient id="path281_1_" gradientUnits="userSpaceOnUse" x1="-173.7184" y1="349.0656" x2="-174.7114" y2="347.1789" gradientTransform="matrix(2.5473 0 0 -5.1242 444.3045 1793.6199)">
					<stop  offset="5.600000e-02" style="stop-color:#DE7210"/>
					<stop  offset="1" style="stop-color:#F6C08F"/>
				</linearGradient>
				<path id="path281" class="st26" d="M0.2,10c0,0,0.3-3.3,1.9-4.5c1.3-0.9,0.3-0.6-0.2-0.6C1.3,5,1.1,5.3,1.2,5.2c0,0,0,0,0,0
					C1.2,5.2-0.1,6.2,0.2,10z"/>
				
					<linearGradient id="path288_1_" gradientUnits="userSpaceOnUse" x1="-197.2177" y1="327.3732" x2="-198.0898" y2="325.7097" gradientTransform="matrix(3.2191 0 0 -4.0419 636.9799 1327.5673)">
					<stop  offset="5.600000e-02" style="stop-color:#DE7210"/>
					<stop  offset="1" style="stop-color:#F2C06E"/>
				</linearGradient>
				<path id="path288" class="st27" d="M0,7.5c0,0,0.9-2.8,2.6-2.8c1.2,0,0.2-1-0.1-1.1C2.2,3.4,2.1,3.4,2,3.5
					C1.9,3.6,0.7,3.5,0,7.5z"/>
				
					<linearGradient id="path307_1_" gradientUnits="userSpaceOnUse" x1="-194.5454" y1="48.6291" x2="-195.6814" y2="47.9944" gradientTransform="matrix(3.1452 0 0 -1.0804 624.6026 61.9744)">
					<stop  offset="5.000000e-03" style="stop-color:#FFFAEE"/>
					<stop  offset="0.276" style="stop-color:#F5F89B"/>
					<stop  offset="0.31" style="stop-color:#F3ED91"/>
					<stop  offset="0.467" style="stop-color:#ECC267"/>
					<stop  offset="0.618" style="stop-color:#E6A046"/>
					<stop  offset="0.761" style="stop-color:#E2872E"/>
					<stop  offset="0.892" style="stop-color:#E07820"/>
					<stop  offset="1" style="stop-color:#DF731B"/>
				</linearGradient>
				<path id="path307" class="st28" d="M12,10.2c0.1-0.1,0-0.6-0.8-0.9C10.4,9,9.2,9.7,8.9,9.8c0,0,1.3-0.3,1.8-0.2
					C11.4,9.8,11.6,10.5,12,10.2z"/>
				
					<linearGradient id="path314_1_" gradientUnits="userSpaceOnUse" x1="-122.9164" y1="338.1587" x2="-123.5152" y2="336.322" gradientTransform="matrix(1.7549 0 0 -4.5118 217.795 1530.6289)">
					<stop  offset="5.600000e-02" style="stop-color:#DE7210"/>
					<stop  offset="1" style="stop-color:#F2C06E"/>
				</linearGradient>
				<path id="path314" class="st29" d="M1.3,9.3c0,0-0.1-2.7,1.1-3.9c1-0.9,0.2-0.5-0.2-0.4C1.7,5,1.5,5.3,1.6,5.2c0,0,0,0,0,0
					C1.6,5.2,0.7,6.2,1.3,9.3z"/>
				
					<linearGradient id="path321_1_" gradientUnits="userSpaceOnUse" x1="-174.5344" y1="327.3676" x2="-175.708" y2="325.4362" gradientTransform="matrix(2.5674 0 0 -4.0325 450.2593 1324.4711)">
					<stop  offset="5.600000e-02" style="stop-color:#DE7210"/>
					<stop  offset="1" style="stop-color:#F2C06E"/>
				</linearGradient>
				<path id="path321" class="st30" d="M0.4,8.4c0,0,0.5-2.7,2-3.5c1.2-0.7,0.3-0.5-0.1-0.5c-0.4,0-0.7,0.2-0.6,0.1c0,0,0,0,0,0
					C1.6,4.5,0.5,5.2,0.4,8.4z"/>
				
					<linearGradient id="path328_1_" gradientUnits="userSpaceOnUse" x1="-26.8415" y1="283.6528" x2="-26.6936" y2="282.1731" gradientTransform="matrix(1.1052 0 0 -2.8295 31.7897 810.344)">
					<stop  offset="5.600000e-02" style="stop-color:#DE7210"/>
					<stop  offset="1" style="stop-color:#F2C072"/>
				</linearGradient>
				<path id="path328" class="st31" d="M2.1,9.5c0,0-0.3-1.6,0.3-2.4c0.5-0.6,0.1-0.3-0.2-0.2C2,6.9,1.9,7.1,2,7
					C2,7,0.9,7.8,2.1,9.5z"/>
				
					<linearGradient id="path335_1_" gradientUnits="userSpaceOnUse" x1="-26.3938" y1="283.6525" x2="-26.2458" y2="282.1728" gradientTransform="matrix(1.1033 0 0 -2.8295 31.5677 808.803)">
					<stop  offset="5.600000e-02" style="stop-color:#DE7210"/>
					<stop  offset="1" style="stop-color:#F2C072"/>
				</linearGradient>
				<path id="path335" class="st32" d="M2.4,8c0,0-0.3-1.6,0.3-2.4c0.5-0.6,0.1-0.3-0.2-0.2C2.4,5.4,2.3,5.6,2.3,5.5
					C2.3,5.4,1.3,6.3,2.4,8z"/>
				
					<linearGradient id="path342_1_" gradientUnits="userSpaceOnUse" x1="-136.0768" y1="213.4331" x2="-136.6077" y2="212.4373" gradientTransform="matrix(1.9073 0 0 -1.9075 261.1659 411.7077)">
					<stop  offset="5.600000e-02" style="stop-color:#DE7210"/>
					<stop  offset="1" style="stop-color:#EED8A5"/>
				</linearGradient>
				<path id="path342" class="st33" d="M0.7,5.7c0,0,0.7-1.4,1.5-1.6c0.7-0.2,0.2-0.2,0-0.3c-0.2-0.1-0.4,0-0.3,0
					C2,3.8,0.7,3.9,0.7,5.7z"/>
				
					<linearGradient id="path349_1_" gradientUnits="userSpaceOnUse" x1="-136.0765" y1="213.4338" x2="-136.6075" y2="212.4381" gradientTransform="matrix(1.9073 0 0 -1.9075 261.0714 412.7839)">
					<stop  offset="5.600000e-02" style="stop-color:#DE7210"/>
					<stop  offset="1" style="stop-color:#EED8A5"/>
				</linearGradient>
				<path id="path349" class="st34" d="M0.6,6.8c0,0,0.7-1.4,1.5-1.6C2.9,5,2.4,5,2.2,4.9c-0.2-0.1-0.4,0-0.3,0
					C1.9,4.9,0.7,4.9,0.6,6.8z"/>
				
					<linearGradient id="path356_1_" gradientUnits="userSpaceOnUse" x1="-201.2675" y1="306.4991" x2="-201.5585" y2="305.7726" gradientTransform="matrix(3.364 0 0 -3.3615 679.668 1035.2039)">
					<stop  offset="5.600000e-02" style="stop-color:#DE7210"/>
					<stop  offset="1" style="stop-color:#F2C072"/>
				</linearGradient>
				<path id="path356" class="st35" d="M1.1,6.5c0,0,1.2-2.4,2.7-2.9c1.2-0.4,0.4-0.4,0-0.5c-0.4-0.1-0.7,0.1-0.6,0
					C3.3,3.1,1.2,3.2,1.1,6.5z"/>
				
					<linearGradient id="path363_1_" gradientUnits="userSpaceOnUse" x1="-149.1537" y1="232.2721" x2="-150.2617" y2="230.6023" gradientTransform="matrix(2.0892 0 0 -2.0895 314.5514 489.1447)">
					<stop  offset="5.600000e-02" style="stop-color:#DE7210"/>
					<stop  offset="1" style="stop-color:#F2C072"/>
				</linearGradient>
				<path id="path363" class="st36" d="M1.9,5.2c0,0,0.7-1.5,1.7-1.8c0.8-0.2,0.2-0.2,0-0.3c-0.2-0.1-0.4,0-0.4,0
					C3.3,3.1,1.9,3.2,1.9,5.2z"/>
				
					<linearGradient id="path370_1_" gradientUnits="userSpaceOnUse" x1="-136.055" y1="213.5042" x2="-137.1611" y2="211.8372" gradientTransform="matrix(1.9073 0 0 -1.9075 262.587 411.725)">
					<stop  offset="5.600000e-02" style="stop-color:#DE7210"/>
					<stop  offset="1" style="stop-color:#F2C072"/>
				</linearGradient>
				<path id="path370" class="st37" d="M2.1,5.8c0,0,0.7-1.4,1.5-1.6c0.7-0.2,0.2-0.2,0-0.3c-0.2-0.1-0.4,0-0.3,0
					C3.4,3.8,2.2,3.9,2.1,5.8z"/>
				
					<linearGradient id="path377_1_" gradientUnits="userSpaceOnUse" x1="119.8567" y1="-119.6696" x2="120.0934" y2="-120.0693" gradientTransform="matrix(0.7063 0 0 -0.7489 -75.2651 -85.62)">
					<stop  offset="0" style="stop-color:#8B8B89"/>
					<stop  offset="1" style="stop-color:#120500"/>
				</linearGradient>
				<path id="path377" class="st38" d="M9.7,4.1c0-0.1,0-0.2-0.7-0.2c0.1,0,0.2,0.1,0.4,0.2c0.2,0.2,0.2,0.3,0.2,0.5
					C9.7,4.5,9.7,4.3,9.7,4.1z"/>
				
					<linearGradient id="path384_1_" gradientUnits="userSpaceOnUse" x1="-228.3418" y1="274.2233" x2="-228.3418" y2="274.5692" gradientTransform="matrix(4.9327 0 0 -2.657 1129.6238 731.6641)">
					<stop  offset="5.600000e-02" style="stop-color:#DE7210"/>
					<stop  offset="1" style="stop-color:#F6C08F"/>
				</linearGradient>
				<path id="path384" class="st39" d="M5.7,2.2L5.2,3.1c0,0-2.3-0.4-4.3,1.6C0.7,4.9,2.1,1.3,5.7,2.2z"/>
				
					<linearGradient id="path391_1_" gradientUnits="userSpaceOnUse" x1="-87.1405" y1="156.9257" x2="-85.7445" y2="158.3578" gradientTransform="matrix(1.4341 0 0 -1.515 128.2594 241.7403)">
					<stop  offset="5.600000e-02" style="stop-color:#DE7210"/>
					<stop  offset="1" style="stop-color:#F6C08F"/>
				</linearGradient>
				<path id="path391" class="st40" d="M3.6,3.9c0,0,0.6-1.2,1.4-1.5C4.7,2.4,3.7,2.7,3.6,3.9z"/>
				
					<linearGradient id="path398_1_" gradientUnits="userSpaceOnUse" x1="-136.0775" y1="213.4331" x2="-136.6086" y2="212.4373" gradientTransform="matrix(1.9073 0 0 -1.9075 261.6855 411.0019)">
					<stop  offset="5.600000e-02" style="stop-color:#DE7210"/>
					<stop  offset="1" style="stop-color:#EED8A5"/>
				</linearGradient>
				<path id="path398" class="st41" d="M1.2,5c0,0,0.7-1.4,1.5-1.6c0.7-0.2,0.2-0.2,0-0.3c-0.2-0.1-0.4,0-0.3,0
					C2.5,3.1,1.3,3.2,1.2,5z"/>
				
					<linearGradient id="path405_1_" gradientUnits="userSpaceOnUse" x1="-95.1794" y1="131.7571" x2="-93.7822" y2="133.192" gradientTransform="matrix(1.4942 0 0 -1.3863 144.4907 186.8117)">
					<stop  offset="5.600000e-02" style="stop-color:#DE7210"/>
					<stop  offset="1" style="stop-color:#F6C08F"/>
				</linearGradient>
				<path id="path405" class="st42" d="M2.6,4.1c0,0,0.7-1.1,1.5-1.4C3.7,2.7,2.8,2.9,2.6,4.1z"/>
				
					<linearGradient id="path412_1_" gradientUnits="userSpaceOnUse" x1="-85.4646" y1="-392.4576" x2="-83.91" y2="-393.7079" gradientTransform="matrix(1.4212 0 0 -0.5 123.2913 -194.3031)">
					<stop  offset="5.600000e-02" style="stop-color:#DE7210"/>
					<stop  offset="1" style="stop-color:#F6C08F"/>
				</linearGradient>
				<path id="path412" class="st43" d="M3.8,2.2c0,0-0.5,0.3-1.4-0.2l0.8,0.5L3.8,2.2z"/>
				
					<linearGradient id="path419_1_" gradientUnits="userSpaceOnUse" x1="-144.2795" y1="-392.6407" x2="-142.6976" y2="-393.6067" gradientTransform="matrix(2.0051 0 0 -0.5 290.0617 -194.1395)">
					<stop  offset="5.600000e-02" style="stop-color:#DE7210"/>
					<stop  offset="1" style="stop-color:#F6C08F"/>
				</linearGradient>
				<path id="path419" class="st44" d="M3.5,2.4c0,0-0.7,0.3-2-0.1l1.1,0.5C2.8,2.6,3.5,2.4,3.5,2.4z"/>
				
					<linearGradient id="path426_1_" gradientUnits="userSpaceOnUse" x1="-66.0748" y1="-392.5605" x2="-64.5089" y2="-393.7096" gradientTransform="matrix(1.2967 0 0 -0.5 87.9259 -194.415)">
					<stop  offset="5.600000e-02" style="stop-color:#DE7210"/>
					<stop  offset="1" style="stop-color:#F6C08F"/>
				</linearGradient>
				<path id="path426" class="st45" d="M4,2.2c0,0-0.5,0.2-1.3-0.2l0.8,0.5C3.6,2.3,4,2.2,4,2.2z"/>
				
					<linearGradient id="path433_1_" gradientUnits="userSpaceOnUse" x1="-47.7424" y1="-393.1935" x2="-49.2911" y2="-392.5907" gradientTransform="matrix(1.2022 0 0 -0.5 59.4912 -193.7048)">
					<stop  offset="5.600000e-02" style="stop-color:#DE7210"/>
					<stop  offset="1" style="stop-color:#F6C08F"/>
				</linearGradient>
				<path id="path433" class="st46" d="M2.6,2.7c0,0-0.3,0.4-1.2,0.5l0.7,0L2.6,2.7z"/>
				
					<linearGradient id="path440_1_" gradientUnits="userSpaceOnUse" x1="-151.3616" y1="206.6525" x2="-150.0008" y2="208.1291" gradientTransform="matrix(2.1125 0 0 -1.8552 321.1331 387.6586)">
					<stop  offset="5.600000e-02" style="stop-color:#DE7210"/>
					<stop  offset="1" style="stop-color:#F6C08F"/>
				</linearGradient>
				<path id="path440" class="st47" d="M1.8,4.1c0,0,1.2-1.5,2.1-1.9C3.4,2.2,2,2.8,1.8,4.1z"/>
			</g>
			<g id="Fire" transform="translate(6.551227, 1.645045)">
				
					<linearGradient id="path458_1_" gradientUnits="userSpaceOnUse" x1="-248.994" y1="387.1325" x2="-248.2127" y2="387.9129" gradientTransform="matrix(6.4559 0 0 -10.0161 1614.8668 3894.9946)">
					<stop  offset="0" style="stop-color:#DE5C01"/>
					<stop  offset="0.736" style="stop-color:#FEFD00"/>
					<stop  offset="0.778" style="stop-color:#FEFE26"/>
					<stop  offset="0.837" style="stop-color:#FFFE54"/>
					<stop  offset="0.889" style="stop-color:#FFFF76"/>
					<stop  offset="0.932" style="stop-color:#FFFF8B"/>
					<stop  offset="0.961" style="stop-color:#FFFF92"/>
				</linearGradient>
				<path id="path458" class="st48" d="M13.2,6.6c0,0,0.1,2.8-3.8,6.7C9,13.8,6.7,16,6.7,16.6C6.8,16.8,12.9,15.7,13.2,6.6z"/>
				
					<linearGradient id="path475_1_" gradientUnits="userSpaceOnUse" x1="-241.3761" y1="312.3666" x2="-241.9674" y2="312.779" gradientTransform="matrix(5.586 0 0 -3.534 1358.4548 1105.9872)">
					<stop  offset="0" style="stop-color:#F79A09"/>
					<stop  offset="0.736" style="stop-color:#FEFD00"/>
					<stop  offset="0.778" style="stop-color:#FEFE26"/>
					<stop  offset="0.837" style="stop-color:#FFFE54"/>
					<stop  offset="0.889" style="stop-color:#FFFF76"/>
					<stop  offset="0.932" style="stop-color:#FFFF8B"/>
					<stop  offset="0.961" style="stop-color:#FFFF92"/>
				</linearGradient>
				<path id="path475" class="st49" d="M5.7,0c4.7,0.4,5.6,3.7,5.6,3.5C11.3,0.3,6.8,0,5.7,0z"/>
				
					<linearGradient id="path492_1_" gradientUnits="userSpaceOnUse" x1="-223.6582" y1="329.3811" x2="-224.7646" y2="330.4193" gradientTransform="matrix(4.179 0 0 -4.1541 946.8522 1373.4459)">
					<stop  offset="0" style="stop-color:#DE5C01"/>
					<stop  offset="0.736" style="stop-color:#FEFD00"/>
					<stop  offset="0.778" style="stop-color:#FEFE26"/>
					<stop  offset="0.837" style="stop-color:#FFFE54"/>
					<stop  offset="0.889" style="stop-color:#FFFF76"/>
					<stop  offset="0.932" style="stop-color:#FFFF8B"/>
					<stop  offset="0.961" style="stop-color:#FFFF92"/>
				</linearGradient>
				<path id="path492" class="st50" d="M7.1,1.3c0,0,3.2,0.7,4.2,4.1c0.1,0.5-0.4-2.8-0.2-2.5C11.2,3.2,9.7,1.4,7.1,1.3z"/>
				
					<linearGradient id="path509_1_" gradientUnits="userSpaceOnUse" x1="-224.23" y1="370.7195" x2="-224.7069" y2="370.9955" gradientTransform="matrix(4.1764 0 0 -7.087 947.3853 2632.2791)">
					<stop  offset="0" style="stop-color:#F79A09"/>
					<stop  offset="0.736" style="stop-color:#FEFD00"/>
					<stop  offset="0.778" style="stop-color:#FEFE26"/>
					<stop  offset="0.837" style="stop-color:#FFFE54"/>
					<stop  offset="0.889" style="stop-color:#FFFF76"/>
					<stop  offset="0.932" style="stop-color:#FFFF8B"/>
					<stop  offset="0.961" style="stop-color:#FFFF92"/>
				</linearGradient>
				<path id="path509" class="st51" d="M8.4,1.2c0,0,2.9,0.6,3,5.3c0,3.3,0.5,1.2,1,0.5c0.4-0.6,0.1-1.4,0.1-1.4
					c0,0-0.2-0.6-0.1-0.3c0,0-0.2-0.2-0.2-0.2C12.2,5.1,12.1,1.7,8.4,1.2z"/>
				
					<linearGradient id="path526_1_" gradientUnits="userSpaceOnUse" x1="-105.1746" y1="377.2617" x2="-104.4596" y2="377.7317" gradientTransform="matrix(1.5242 0 0 -8.014 171.7617 3030.8145)">
					<stop  offset="0" style="stop-color:#F79A09"/>
					<stop  offset="0.736" style="stop-color:#FEFD00"/>
					<stop  offset="0.778" style="stop-color:#FEFE26"/>
					<stop  offset="0.837" style="stop-color:#FFFE54"/>
					<stop  offset="0.889" style="stop-color:#FFFF76"/>
					<stop  offset="0.932" style="stop-color:#FFFF8B"/>
					<stop  offset="0.961" style="stop-color:#FFFF92"/>
				</linearGradient>
				<path id="path526" class="st52" d="M11.7,1.9c0,0,1.1,2.7-0.1,4.1c-0.4,0.4-0.4,2.7,0,2.5C12.1,8.3,12,9.7,12,9.9v0
					C12,9.9,14.2,6.4,11.7,1.9z"/>
				
					<linearGradient id="path543_1_" gradientUnits="userSpaceOnUse" x1="13.7839" y1="337.3457" x2="13.6155" y2="337.9799" gradientTransform="matrix(0.9355 0 0 -4.5105 -2.1973 1529.8572)">
					<stop  offset="0" style="stop-color:#F79A09"/>
					<stop  offset="0.736" style="stop-color:#FEFD00"/>
					<stop  offset="0.778" style="stop-color:#FEFE26"/>
					<stop  offset="0.837" style="stop-color:#FFFE54"/>
					<stop  offset="0.889" style="stop-color:#FFFF76"/>
					<stop  offset="0.932" style="stop-color:#FFFF8B"/>
					<stop  offset="0.961" style="stop-color:#FFFF92"/>
				</linearGradient>
				<path id="path543" class="st53" d="M10.2,4.8c0,0,0.7,1.9,0,3.3l0.5,1.2C11.1,8.3,11.6,6.3,10.2,4.8z"/>
				
					<linearGradient id="path560_1_" gradientUnits="userSpaceOnUse" x1="-198.546" y1="379.9116" x2="-197.9903" y2="380.3866" gradientTransform="matrix(3.0318 0 0 -8.4534 612.1746 3222.1157)">
					<stop  offset="0" style="stop-color:#F79A09"/>
					<stop  offset="0.736" style="stop-color:#FEFD00"/>
					<stop  offset="0.778" style="stop-color:#FEFE26"/>
					<stop  offset="0.837" style="stop-color:#FFFE54"/>
					<stop  offset="0.889" style="stop-color:#FFFF76"/>
					<stop  offset="0.932" style="stop-color:#FFFF8B"/>
					<stop  offset="0.961" style="stop-color:#FFFF92"/>
				</linearGradient>
				<path id="path560" class="st54" d="M11.4,4.5c0,0,0.5,3.1-1.2,5.9c0,0.6-0.1,1.2-0.2,1.7c0.1,0.1,0.2,0.2,0.3,0.2
					c-0.1,0.1-0.1,0.1-0.2,0.1c-0.1,0-0.2,0.1-0.3,0.1l-0.1,0.1c0.1-0.1,0.2-0.2,0.4-0.3c0.3-0.2,0.6-0.3,0.6-0.3s-0.1,0-0.2,0.1
					c-0.1,0-0.2,0-0.3,0C11.5,11.1,13.3,8.5,11.4,4.5z M9.5,12.7c-0.1,0.1-0.3,0.2-0.3,0.2c0,0,0.1,0,0.3-0.1
					C9.5,12.8,9.5,12.8,9.5,12.7z"/>
				
					<linearGradient id="path577_1_" gradientUnits="userSpaceOnUse" x1="-216.3643" y1="372.3873" x2="-216.375" y2="372.9756" gradientTransform="matrix(3.7426 0 0 -7.3315 818.1078 2743.8115)">
					<stop  offset="0" style="stop-color:#DE5C01"/>
					<stop  offset="0.736" style="stop-color:#FEFD00"/>
					<stop  offset="0.778" style="stop-color:#FEFE26"/>
					<stop  offset="0.837" style="stop-color:#FFFE54"/>
					<stop  offset="0.889" style="stop-color:#FFFF76"/>
					<stop  offset="0.932" style="stop-color:#FFFF8B"/>
					<stop  offset="0.961" style="stop-color:#FFFF92"/>
				</linearGradient>
				<path id="path577" class="st55" d="M9.4,7.8c0,0,1.3,3.7-2.9,7.2c-0.2,0.2,1.7,0.1,1.9,0c0.5-0.2,1.1-1.7,1-1.6
					C9.3,13.7,11.3,10.8,9.4,7.8z"/>
				
					<linearGradient id="path608_1_" gradientUnits="userSpaceOnUse" x1="-267.5849" y1="373.3047" x2="-266.8422" y2="373.9707" gradientTransform="matrix(11.1502 0 0 -7.4667 2986.1716 2804.2183)">
					<stop  offset="0" style="stop-color:#B9120D"/>
					<stop  offset="7.800000e-02" style="stop-color:#BB180D"/>
					<stop  offset="0.182" style="stop-color:#C0290C"/>
					<stop  offset="0.301" style="stop-color:#C8450A"/>
					<stop  offset="0.431" style="stop-color:#D36C08"/>
					<stop  offset="0.571" style="stop-color:#E29E05"/>
					<stop  offset="0.715" style="stop-color:#F4DA02"/>
					<stop  offset="0.792" style="stop-color:#FEFD00"/>
					<stop  offset="0.814" style="stop-color:#FEFD07"/>
					<stop  offset="0.846" style="stop-color:#FEFD1B"/>
					<stop  offset="0.884" style="stop-color:#FEFE3C"/>
					<stop  offset="0.927" style="stop-color:#FFFE69"/>
					<stop  offset="0.974" style="stop-color:#FFFFA3"/>
					<stop  offset="1" style="stop-color:#FFFFC7"/>
				</linearGradient>
				<path id="path608" class="st56" d="M11.2,10.2c0,0-0.8,4.8-6.2,5.2C2.8,15.5-0.2,15,0,15.8c0.1,0.3,0.5,1.3,1.4,1.5
					C3.9,18.1,10.5,17.8,11.2,10.2z"/>
			</g>
			<g id="Layer_6" transform="translate(2.257602, 12.490884)">
				
					<linearGradient id="path616_1_" gradientUnits="userSpaceOnUse" x1="-251.6667" y1="253.2268" x2="-250.5875" y2="252.4298" gradientTransform="matrix(7.7173 0 0 -2.497 1948.5004 634.833)">
					<stop  offset="5.600000e-02" style="stop-color:#DE7210"/>
					<stop  offset="1" style="stop-color:#F6C08F"/>
				</linearGradient>
				<path id="path616" class="st57" d="M10.9,3c0,0-3.3,0.8-5.5-1.1c-2-1.7-1-0.3-0.7,0.4C5,3,3.5,2.5,3.2,2.4C3,2.3,6.9,4.7,10.9,3
					z"/>
				
					<linearGradient id="path623_1_" gradientUnits="userSpaceOnUse" x1="-250.0428" y1="329.4814" x2="-248.7831" y2="328.5104" gradientTransform="matrix(7.3809 0 0 -4.6424 1849.3962 1531.5276)">
					<stop  offset="5.600000e-02" style="stop-color:#DE7210"/>
					<stop  offset="1" style="stop-color:#F6C08F"/>
				</linearGradient>
				<path id="path623" class="st58" d="M8.8,4.8c0,0-4-0.8-5.2-3.5C2.5-1,2.8,0.7,2.7,1.5C2.7,2.3,1.6,1.2,1.4,1l0,0
					C1.4,1,3.5,4.2,8.8,4.8z"/>
				
					<linearGradient id="path630_1_" gradientUnits="userSpaceOnUse" x1="-224.3834" y1="325.0057" x2="-222.9812" y2="323.188" gradientTransform="matrix(4.4396 0 0 -4.4115 997.2077 1434.7986)">
					<stop  offset="5.600000e-02" style="stop-color:#DE7210"/>
					<stop  offset="1" style="stop-color:#F6C08F"/>
				</linearGradient>
				<path id="path630" class="st59" d="M4.5,4.4c0,0-1.9-1.5-2.7-3.5C1,0.7,0,0.1,0,0C0.3,1.6,1.9,3.4,4.5,4.4z"/>
			</g>
		</g>
	</g>
</g>
</svg>
