<?xml version="1.0" encoding="utf-8"?>
<!-- Generator: Adobe Illustrator 23.0.0, SVG Export Plug-In . SVG Version: 6.00 Build 0)  -->
<svg version="1.1" id="Layer_2" xmlns="http://www.w3.org/2000/svg" xmlns:xlink="http://www.w3.org/1999/xlink" x="0px" y="0px"
	 viewBox="0 0 20 20" style="enable-background:new 0 0 20 20;" xml:space="preserve">
<style type="text/css">
	.st0{fill:#1EBBEE;}
</style>
<g id="Symbols">
	<g>
		<g id="internet-explorer">
			<path id="Shape" class="st0" d="M20,10.1c0-1.5-0.4-3-1.1-4.3C21.9-1,15.6,0,15.2,0.1c-1.3,0.3-2.6,0.7-3.7,1.2
				c-0.2,0-0.3,0-0.5,0c-4.3,0-7.8,2.9-8.8,6.8C4.5,5.6,6.1,4.6,7,4.2C6.9,4.4,6.7,4.5,6.6,4.6c0,0-0.1,0.1-0.1,0.1
				C6.3,4.8,6.2,4.9,6.2,5C6.1,5.1,6,5.1,6,5.2C5.9,5.3,5.8,5.4,5.7,5.4C5.7,5.5,5.6,5.6,5.6,5.6C5.5,5.7,5.4,5.8,5.3,5.8
				C5.3,5.9,5.2,6,5.2,6C5.1,6.2,4.9,6.3,4.8,6.5C4.7,6.5,4.7,6.6,4.6,6.7C4.6,6.7,4.5,6.8,4.4,6.9C4.4,6.9,4.3,7,4.3,7.1
				C4.2,7.2,4.2,7.2,4.1,7.3C4.1,7.4,4,7.4,4,7.5C3.9,7.6,3.8,7.6,3.8,7.7c0,0.1-0.1,0.1-0.1,0.2C3.3,8.3,3,8.8,2.7,9.3c0,0,0,0,0,0
				C2.6,9.4,2.5,9.5,2.5,9.6c0,0,0,0,0,0C2.4,9.7,2.3,9.9,2.2,10l0,0c-0.2,0.3-0.3,0.6-0.5,0.9c-0.8,1.4-1.2,2.4-1.2,2.5
				c-2.6,8.9,5.4,5.2,6.5,4.6c1.2,0.6,2.5,0.9,4,0.9c3.9,0,7.2-2.4,8.5-5.8h-4.7c-0.7,1.2-2,1.9-3.6,1.9c-2.3,0-4.1-1.7-4.1-3.7
				h12.9C20,10.8,20,10.4,20,10.1z M18.3,1.4c0.8,0.5,1.4,1.3,0.3,4c-1-1.6-2.6-2.9-4.4-3.6C15.1,1.5,17.2,0.6,18.3,1.4z M1.9,17.9
				c-0.6-0.6-0.7-2.2,0.6-5c0.7,2,2.1,3.6,3.9,4.7C5.5,18.1,3.1,19.2,1.9,17.9z M7.1,8.8c0.1-2,1.9-3.6,4.1-3.6s4,1.6,4.1,3.6H7.1z"
				/>
		</g>
	</g>
</g>
</svg>
