<?xml version="1.0" encoding="utf-8"?>
<!-- Generator: Adobe Illustrator 23.0.0, SVG Export Plug-In . SVG Version: 6.00 Build 0)  -->
<svg version="1.1" id="Layer_2" xmlns="http://www.w3.org/2000/svg" xmlns:xlink="http://www.w3.org/1999/xlink" x="0px" y="0px"
	 viewBox="0 0 20 20" style="enable-background:new 0 0 20 20;" xml:space="preserve">
<style type="text/css">
	.st0{fill:url(#Oval_1_);}
	.st1{fill:url(#SVGID_1_);}
	.st2{fill:#F3F3F3;}
	.st3{fill:#FFFFFF;}
	.st4{fill:#E2E2E2;}
	.st5{fill:url(#SVGID_2_);fill-opacity:0.2;}
	.st6{fill-opacity:5.000000e-02;}
	.st7{fill:#CD151E;}
	.st8{fill:#FA5153;}
	.st9{fill:#ACACAC;}
	.st10{fill:#EEEEEE;}
</style>
<g id="Symbols">
	<g>
		<g id="safari">
			
				<linearGradient id="Oval_1_" gradientUnits="userSpaceOnUse" x1="-272.15" y1="409.34" x2="-272.15" y2="410.34" gradientTransform="matrix(20 0 0 -20 5453 8206.7998)">
				<stop  offset="0.25" style="stop-color:#DBDBDA"/>
				<stop  offset="1" style="stop-color:#FFFFFF"/>
			</linearGradient>
			<circle id="Oval" class="st0" cx="10" cy="10" r="10"/>
			
				<radialGradient id="SVGID_1_" cx="-270.9162" cy="408.2836" r="0.6103" gradientTransform="matrix(18.5 0 0 -18.5 5023.25 7561.2148)" gradientUnits="userSpaceOnUse">
				<stop  offset="0" style="stop-color:#2ABCE1"/>
				<stop  offset="0.1136" style="stop-color:#2ABBE1"/>
				<stop  offset="1" style="stop-color:#3375F8"/>
			</radialGradient>
			<circle class="st1" cx="10" cy="10" r="9.2"/>
			<g id="Group" transform="translate(0.781290, 0.703145)">
				<path id="Shape" class="st2" d="M9.4,2.3c-0.1,0-0.2,0-0.2-0.1V0.6c0-0.1,0.1-0.1,0.2-0.1c0.1,0,0.2,0,0.2,0.1v1.6
					C9.6,2.2,9.5,2.3,9.4,2.3z"/>
				<path class="st3" d="M9.4,2.3c-0.1,0-0.2-0.1-0.2-0.1V0.6c0-0.1,0.1-0.1,0.2-0.1s0.2,0.1,0.2,0.1v1.6C9.6,2.2,9.5,2.3,9.4,2.3z
					 M9.4,0.5c-0.1,0-0.2,0-0.2,0.1v1.6c0,0.1,0.1,0.1,0.2,0.1c0.1,0,0.2,0,0.2-0.1V0.6C9.6,0.5,9.5,0.5,9.4,0.5z"/>
				<path class="st2" d="M10.1,1.4c-0.1,0-0.2-0.1-0.2-0.1L10,0.6c0-0.1,0.1-0.1,0.2-0.1c0.1,0,0.2,0.1,0.2,0.1l-0.1,0.7
					C10.3,1.4,10.2,1.4,10.1,1.4L10.1,1.4z"/>
				<path class="st3" d="M10.1,1.4c-0.1,0-0.2-0.1-0.2-0.1L10,0.6c0-0.1,0.1-0.1,0.2-0.1c0.1,0,0.2,0.1,0.2,0.1l-0.1,0.7
					C10.3,1.4,10.2,1.4,10.1,1.4z M10.2,0.5c-0.1,0-0.2,0-0.2,0.1L9.9,1.3c0,0.1,0.1,0.1,0.2,0.1c0.1,0,0.2,0,0.2-0.1l0.1-0.7
					C10.4,0.5,10.3,0.5,10.2,0.5L10.2,0.5z"/>
				<path class="st2" d="M10.6,2.4c-0.1,0-0.1-0.1-0.1-0.1l0.3-1.6c0-0.1,0.1-0.1,0.1-0.1s0.1,0.1,0.1,0.1l-0.3,1.6
					C10.7,2.4,10.7,2.4,10.6,2.4L10.6,2.4z"/>
				<path class="st3" d="M10.6,2.4c-0.1,0-0.1-0.1-0.1-0.1l0.3-1.6c0-0.1,0.1-0.1,0.1-0.1c0.1,0,0.1,0.1,0.1,0.1l-0.3,1.6
					C10.7,2.4,10.7,2.5,10.6,2.4z M11,0.6c-0.1,0-0.1,0-0.1,0.1l-0.3,1.6c0,0.1,0,0.1,0.1,0.1c0.1,0,0.1,0,0.1-0.1l0.3-1.6
					C11.1,0.7,11,0.6,11,0.6z"/>
				<path class="st2" d="M11.6,1.7C11.5,1.7,11.5,1.7,11.6,1.7c-0.1-0.1-0.1-0.1-0.1-0.1l0.2-0.7c0-0.1,0.1-0.1,0.2-0.1
					c0.1,0,0.1,0.1,0.1,0.1l-0.2,0.7C11.7,1.7,11.6,1.7,11.6,1.7z"/>
				<path class="st3" d="M11.6,1.7c-0.1,0-0.1-0.1-0.1-0.1l0.2-0.7c0-0.1,0.1-0.1,0.2-0.1c0.1,0,0.1,0.1,0.1,0.1l-0.2,0.7
					C11.7,1.7,11.6,1.8,11.6,1.7L11.6,1.7z M11.8,0.8c-0.1,0-0.1,0-0.2,0.1l-0.2,0.7c0,0.1,0,0.1,0.1,0.1c0.1,0,0.1,0,0.2-0.1
					L11.9,1C11.9,0.9,11.9,0.8,11.8,0.8L11.8,0.8z"/>
				<path class="st2" d="M11.9,2.8c-0.1,0-0.1-0.1-0.1-0.1l0.6-1.5c0-0.1,0.1-0.1,0.1-0.1c0.1,0,0.1,0.1,0.1,0.1l-0.6,1.5
					C12,2.8,12,2.9,11.9,2.8L11.9,2.8z"/>
				<path class="st3" d="M11.9,2.8c-0.1,0-0.1-0.1-0.1-0.2l0.6-1.5c0-0.1,0.1-0.1,0.2-0.1c0.1,0,0.1,0.1,0.1,0.2l-0.6,1.5
					C12.1,2.8,12,2.9,11.9,2.8z M12.6,1.1c-0.1,0-0.1,0-0.1,0.1l-0.6,1.5c0,0.1,0,0.1,0.1,0.1c0.1,0,0.1,0,0.1-0.1l0.6-1.5
					C12.7,1.2,12.7,1.2,12.6,1.1z"/>
				<path class="st2" d="M13,2.3c-0.1,0-0.1-0.1-0.1-0.1l0.3-0.6c0-0.1,0.1-0.1,0.2,0c0.1,0,0.1,0.1,0.1,0.1l-0.3,0.6
					C13.1,2.3,13,2.4,13,2.3L13,2.3z"/>
				<path class="st3" d="M13,2.3c-0.1,0-0.1-0.1-0.1-0.2l0.3-0.6c0-0.1,0.1-0.1,0.2-0.1c0.1,0,0.1,0.1,0.1,0.2l-0.3,0.6
					C13.1,2.4,13,2.4,13,2.3L13,2.3z M13.4,1.5c-0.1,0-0.1,0-0.1,0l-0.3,0.6c0,0,0,0.1,0,0.1c0.1,0,0.1,0,0.1,0l0.3-0.6
					C13.5,1.6,13.5,1.5,13.4,1.5z"/>
				<path class="st2" d="M13.1,3.5c-0.1,0-0.1-0.1,0-0.2L14,2c0-0.1,0.1-0.1,0.2,0c0.1,0,0.1,0.1,0,0.2l-0.9,1.4
					C13.3,3.5,13.2,3.5,13.1,3.5z"/>
				<path class="st3" d="M13.1,3.5c-0.1,0-0.1-0.1,0-0.2L14,2c0-0.1,0.1-0.1,0.2,0c0.1,0,0.1,0.1,0,0.2l-0.9,1.4
					C13.3,3.5,13.2,3.5,13.1,3.5z M14.2,2c0,0-0.1,0-0.1,0l-0.9,1.4c0,0,0,0.1,0,0.1c0,0,0.1,0,0.1,0l0.9-1.3
					C14.2,2.1,14.2,2,14.2,2z"/>
				<path class="st2" d="M14.3,3.2c0,0-0.1-0.1,0-0.2l0.5-0.6c0,0,0.1-0.1,0.2,0c0,0,0.1,0.1,0,0.2l-0.5,0.6
					C14.4,3.2,14.3,3.2,14.3,3.2L14.3,3.2z"/>
				<path class="st3" d="M14.3,3.2c-0.1,0-0.1-0.1,0-0.2l0.5-0.6c0-0.1,0.1-0.1,0.2,0c0.1,0,0.1,0.1,0,0.2l-0.5,0.6
					C14.4,3.2,14.3,3.3,14.3,3.2z M14.9,2.5c0,0-0.1,0-0.1,0l-0.5,0.6c0,0,0,0.1,0,0.1c0,0,0.1,0,0.1,0l0.5-0.6
					C14.9,2.6,14.9,2.5,14.9,2.5L14.9,2.5z"/>
				<path class="st2" d="M14.2,4.4c0,0,0-0.1,0-0.2l1.2-1.1c0,0,0.1,0,0.2,0c0,0,0,0.1,0,0.2l-1.1,1.1C14.3,4.4,14.2,4.4,14.2,4.4z"
					/>
				<path class="st3" d="M14.2,4.4c0,0,0-0.1,0-0.2l1.2-1.1c0,0,0.1,0,0.2,0c0,0,0,0.1,0,0.2l-1.2,1.1C14.3,4.4,14.2,4.4,14.2,4.4
					L14.2,4.4z M15.5,3.1c0,0-0.1,0-0.1,0l-1.2,1.1c0,0,0,0.1,0,0.1c0,0,0.1,0,0.1,0l1.2-1.1C15.5,3.2,15.5,3.1,15.5,3.1z"/>
				<path class="st2" d="M15.4,4.3c0,0,0-0.1,0-0.2l0.6-0.5c0,0,0.1,0,0.2,0c0,0,0,0.1,0,0.2l-0.6,0.5C15.5,4.4,15.4,4.4,15.4,4.3z"
					/>
				<path class="st3" d="M15.4,4.3c0-0.1,0-0.1,0-0.2l0.6-0.5c0,0,0.1,0,0.2,0c0,0.1,0,0.1,0,0.2l-0.6,0.5
					C15.5,4.4,15.4,4.4,15.4,4.3L15.4,4.3z M16.1,3.7c0,0-0.1,0-0.1,0l-0.6,0.5c0,0,0,0.1,0,0.1c0,0,0.1,0,0.1,0l0.6-0.5
					C16.1,3.8,16.1,3.7,16.1,3.7z"/>
				<path class="st2" d="M15.1,5.4c0-0.1,0-0.1,0-0.2l1.4-0.9c0.1,0,0.1,0,0.2,0c0,0.1,0,0.1,0,0.2l-1.4,0.9
					C15.2,5.5,15.1,5.5,15.1,5.4z"/>
				<path class="st3" d="M15,5.4c0-0.1,0-0.1,0-0.2l1.4-0.9c0.1,0,0.1,0,0.2,0c0,0.1,0,0.1,0,0.2l-1.4,0.9C15.2,5.5,15.1,5.5,15,5.4
					L15,5.4z M16.6,4.4c0,0-0.1-0.1-0.1,0l-1.4,0.9c0,0-0.1,0.1,0,0.1c0,0,0.1,0.1,0.1,0l1.4-0.9C16.6,4.5,16.6,4.5,16.6,4.4z"/>
				<path class="st2" d="M16.2,5.6c0-0.1,0-0.1,0-0.2l0.6-0.4c0.1,0,0.1,0,0.2,0c0,0.1,0,0.1,0,0.2l-0.6,0.4
					C16.3,5.7,16.2,5.7,16.2,5.6L16.2,5.6z"/>
				<path class="st3" d="M16.2,5.6c0-0.1,0-0.1,0-0.2l0.6-0.4c0.1,0,0.1,0,0.2,0c0,0.1,0,0.1,0,0.2l-0.6,0.4
					C16.3,5.7,16.2,5.7,16.2,5.6z M17,5.1c0-0.1-0.1-0.1-0.1,0l-0.6,0.4c0,0-0.1,0.1,0,0.1c0,0.1,0.1,0.1,0.1,0L17,5.3
					C17,5.3,17.1,5.2,17,5.1z"/>
				<path class="st2" d="M15.7,6.6c0-0.1,0-0.1,0.1-0.1l1.5-0.6c0.1,0,0.1,0,0.1,0.1c0,0.1,0,0.1-0.1,0.1l-1.5,0.6
					C15.8,6.7,15.7,6.7,15.7,6.6z"/>
				<path class="st3" d="M15.7,6.6c0-0.1,0-0.1,0.1-0.2l1.5-0.6c0.1,0,0.1,0,0.2,0.1c0,0.1,0,0.1-0.1,0.2l-1.5,0.6
					C15.8,6.7,15.7,6.7,15.7,6.6L15.7,6.6z M17.4,5.9c0-0.1-0.1-0.1-0.1-0.1l-1.5,0.6c-0.1,0-0.1,0.1-0.1,0.1c0,0.1,0.1,0.1,0.1,0.1
					l1.5-0.6C17.4,6.1,17.4,6,17.4,5.9z"/>
				<path class="st2" d="M16.8,7.1c0-0.1,0-0.1,0.1-0.2l0.7-0.2c0.1,0,0.1,0,0.1,0.1c0,0.1,0,0.1-0.1,0.2l-0.7,0.2
					C16.9,7.2,16.8,7.1,16.8,7.1L16.8,7.1z"/>
				<path class="st3" d="M16.8,7.1c0-0.1,0-0.1,0.1-0.2l0.7-0.2c0.1,0,0.1,0,0.2,0.1c0,0.1,0,0.1-0.1,0.2l-0.7,0.2
					C16.9,7.2,16.8,7.1,16.8,7.1z M17.7,6.7c0-0.1-0.1-0.1-0.1-0.1l-0.7,0.2c-0.1,0-0.1,0.1-0.1,0.1c0,0.1,0.1,0.1,0.1,0.1l0.7-0.2
					C17.7,6.9,17.7,6.8,17.7,6.7L17.7,6.7z"/>
				<path class="st2" d="M16.1,8c0-0.1,0-0.1,0.1-0.1l1.6-0.3c0.1,0,0.1,0,0.1,0.1c0,0.1,0,0.1-0.1,0.1l-1.6,0.3
					C16.2,8.1,16.1,8,16.1,8L16.1,8z"/>
				<path class="st3" d="M16.1,8c0-0.1,0-0.1,0.1-0.1l1.6-0.3c0.1,0,0.1,0,0.1,0.1c0,0.1,0,0.1-0.1,0.1l-1.6,0.3
					C16.2,8.1,16.1,8,16.1,8L16.1,8z M17.9,7.6c0-0.1-0.1-0.1-0.1-0.1l-1.6,0.3c-0.1,0-0.1,0.1-0.1,0.1c0,0.1,0.1,0.1,0.1,0.1
					l1.6-0.3C17.9,7.7,17.9,7.7,17.9,7.6z"/>
				<path class="st2" d="M17.1,8.7c0-0.1,0-0.2,0.1-0.2l0.7-0.1C18,8.3,18,8.4,18,8.5c0,0.1,0,0.2-0.1,0.2l-0.7,0.1
					C17.2,8.9,17.1,8.8,17.1,8.7L17.1,8.7z"/>
				<path class="st3" d="M17.1,8.7c0-0.1,0-0.2,0.1-0.2l0.7-0.1C18,8.3,18,8.4,18,8.5s0,0.2-0.1,0.2l-0.7,0.1
					C17.2,8.8,17.1,8.8,17.1,8.7z M18,8.5c0-0.1-0.1-0.2-0.1-0.1l-0.7,0.1c-0.1,0-0.1,0.1-0.1,0.2c0,0.1,0.1,0.2,0.1,0.1l0.7-0.1
					C18,8.7,18,8.6,18,8.5L18,8.5z"/>
				<path class="st2" d="M16.2,9.5c0-0.1,0-0.2,0.1-0.2H18c0.1,0,0.1,0.1,0.1,0.2s0,0.2-0.1,0.2h-1.6C16.3,9.7,16.2,9.6,16.2,9.5z"
					/>
				<path class="st3" d="M16.2,9.4c0-0.1,0.1-0.2,0.1-0.2H18c0.1,0,0.1,0.1,0.1,0.2c0,0.1-0.1,0.2-0.1,0.2h-1.6
					C16.3,9.7,16.2,9.6,16.2,9.4z M18.1,9.5c0-0.1,0-0.2-0.1-0.2h-1.6c-0.1,0-0.1,0.1-0.1,0.2c0,0.1,0,0.2,0.1,0.2H18
					C18,9.7,18.1,9.6,18.1,9.5L18.1,9.5z"/>
				<path class="st2" d="M17.1,10.2c0-0.1,0.1-0.2,0.1-0.2l0.7,0.1c0.1,0,0.1,0.1,0.1,0.2c0,0.1-0.1,0.2-0.1,0.2l-0.7-0.1
					C17.1,10.4,17.1,10.3,17.1,10.2L17.1,10.2z"/>
				<path class="st3" d="M17.1,10.2c0-0.1,0.1-0.2,0.1-0.2l0.7,0.1c0.1,0,0.1,0.1,0.1,0.2c0,0.1-0.1,0.2-0.1,0.2l-0.7-0.1
					C17.1,10.4,17.1,10.3,17.1,10.2z M18,10.3c0-0.1,0-0.2-0.1-0.2L17.2,10c-0.1,0-0.1,0.1-0.1,0.2c0,0.1,0,0.2,0.1,0.2l0.7,0.1
					C18,10.5,18,10.4,18,10.3z"/>
				<path class="st2" d="M16.1,10.7c0-0.1,0.1-0.1,0.1-0.1l1.6,0.3c0.1,0,0.1,0.1,0.1,0.1c0,0.1-0.1,0.1-0.1,0.1l-1.6-0.3
					C16.1,10.8,16.1,10.7,16.1,10.7z"/>
				<path class="st3" d="M16.1,10.7c0-0.1,0.1-0.1,0.1-0.1l1.6,0.3c0.1,0,0.1,0.1,0.1,0.1c0,0.1-0.1,0.1-0.1,0.1l-1.6-0.3
					C16.1,10.8,16.1,10.7,16.1,10.7L16.1,10.7z M17.9,11c0-0.1,0-0.1-0.1-0.1l-1.6-0.3c-0.1,0-0.1,0-0.1,0.1c0,0.1,0,0.1,0.1,0.1
					l1.6,0.3C17.8,11.1,17.9,11.1,17.9,11z"/>
				<path class="st2" d="M16.8,11.6C16.8,11.6,16.8,11.6,16.8,11.6c0.1-0.1,0.1-0.1,0.1-0.1l0.7,0.2c0.1,0,0.1,0.1,0.1,0.2
					c0,0,0,0.1-0.1,0.1c0,0-0.1,0-0.1,0l-0.7-0.2C16.8,11.8,16.8,11.7,16.8,11.6L16.8,11.6z"/>
				<path class="st3" d="M16.8,11.6c0-0.1,0.1-0.1,0.1-0.1l0.7,0.2c0.1,0,0.1,0.1,0.1,0.2c0,0.1-0.1,0.1-0.1,0.1l-0.7-0.2
					C16.8,11.8,16.8,11.7,16.8,11.6L16.8,11.6z M17.7,11.9c0-0.1,0-0.1-0.1-0.2l-0.7-0.2c-0.1,0-0.1,0-0.1,0.1c0,0.1,0,0.1,0.1,0.2
					l0.7,0.2C17.6,12,17.7,12,17.7,11.9z"/>
				<path class="st2" d="M15.7,12c0-0.1,0.1-0.1,0.1-0.1l1.5,0.6c0.1,0,0.1,0.1,0.1,0.1c0,0.1-0.1,0.1-0.1,0.1l-1.5-0.6
					C15.7,12.1,15.7,12,15.7,12L15.7,12z"/>
				<path class="st3" d="M15.7,12c0-0.1,0.1-0.1,0.2-0.1l1.5,0.6c0.1,0,0.1,0.1,0.1,0.2c0,0.1-0.1,0.1-0.2,0.1l-1.5-0.6
					C15.7,12.1,15.6,12,15.7,12z M17.4,12.7c0-0.1,0-0.1-0.1-0.1l-1.5-0.6c-0.1,0-0.1,0-0.1,0.1c0,0.1,0,0.1,0.1,0.1l1.5,0.6
					C17.3,12.8,17.4,12.7,17.4,12.7z"/>
				<path class="st2" d="M16.2,13c0-0.1,0.1-0.1,0.1-0.1l0.6,0.3c0.1,0,0.1,0.1,0,0.2c0,0.1-0.1,0.1-0.1,0.1l-0.6-0.3
					C16.2,13.2,16.2,13.1,16.2,13z"/>
				<path class="st3" d="M16.2,13c0-0.1,0.1-0.1,0.2-0.1l0.6,0.3c0.1,0,0.1,0.1,0.1,0.2c0,0.1-0.1,0.1-0.2,0.1l-0.6-0.3
					C16.2,13.2,16.1,13.1,16.2,13z M17,13.5c0-0.1,0-0.1,0-0.1L16.3,13c0,0-0.1,0-0.1,0c0,0.1,0,0.1,0,0.1l0.6,0.3
					C16.9,13.5,17,13.5,17,13.5z"/>
				<path class="st2" d="M15,13.2c0-0.1,0.1-0.1,0.2,0l1.4,0.9c0.1,0,0.1,0.1,0,0.2c0,0.1-0.1,0.1-0.2,0l-1.4-0.9
					C15,13.3,15,13.2,15,13.2z"/>
				<path class="st3" d="M15,13.2c0-0.1,0.1-0.1,0.2,0l1.4,0.9c0.1,0,0.1,0.1,0,0.2c0,0.1-0.1,0.1-0.2,0l-1.4-0.9
					C15,13.3,15,13.2,15,13.2z M16.6,14.2c0,0,0-0.1,0-0.1l-1.4-0.9c0,0-0.1,0-0.1,0c0,0,0,0.1,0,0.1l1.4,0.9
					C16.5,14.3,16.5,14.3,16.6,14.2L16.6,14.2z"/>
				<path class="st2" d="M15.3,14.3c0,0,0.1-0.1,0.2,0l0.6,0.4c0,0,0.1,0.1,0,0.2c0,0-0.1,0.1-0.2,0l-0.6-0.4
					C15.3,14.4,15.3,14.4,15.3,14.3z"/>
				<path class="st3" d="M15.3,14.3c0-0.1,0.1-0.1,0.2,0l0.6,0.4c0.1,0,0.1,0.1,0,0.2c0,0.1-0.1,0.1-0.2,0l-0.6-0.4
					C15.3,14.5,15.3,14.4,15.3,14.3z M16.1,14.9c0,0,0-0.1,0-0.1l-0.6-0.4c0,0-0.1,0-0.1,0c0,0,0,0.1,0,0.1l0.6,0.4
					C16,15,16,15,16.1,14.9L16.1,14.9z"/>
				<path class="st2" d="M14.2,14.2c0,0,0.1,0,0.2,0l1.2,1.1c0,0,0,0.1,0,0.2c0,0-0.1,0-0.2,0l-1.2-1.1
					C14.1,14.4,14.1,14.3,14.2,14.2z"/>
				<path class="st3" d="M14.2,14.2c0,0,0.1,0,0.2,0l1.2,1.1c0,0,0,0.1,0,0.2c0,0-0.1,0-0.2,0l-1.2-1.1
					C14.1,14.4,14.1,14.3,14.2,14.2z M15.5,15.5c0,0,0-0.1,0-0.1l-1.2-1.1c0,0-0.1,0-0.1,0c0,0,0,0.1,0,0.1l1.2,1.1
					C15.4,15.6,15.4,15.6,15.5,15.5z"/>
				<path class="st2" d="M14.2,15.4c0,0,0.1,0,0.2,0l0.5,0.5c0,0,0,0.1,0,0.2c0,0-0.1,0-0.2,0l-0.5-0.5
					C14.2,15.5,14.2,15.5,14.2,15.4z"/>
				<path class="st3" d="M14.2,15.4c0.1,0,0.1,0,0.2,0l0.5,0.5c0,0,0,0.1,0,0.2c-0.1,0-0.1,0-0.2,0l-0.5-0.5
					C14.2,15.5,14.2,15.5,14.2,15.4L14.2,15.4z M14.9,16.1c0,0,0-0.1,0-0.1l-0.5-0.5c0,0-0.1,0-0.1,0c0,0,0,0.1,0,0.1l0.5,0.5
					C14.7,16.2,14.8,16.2,14.9,16.1L14.9,16.1z"/>
				<path class="st2" d="M13.1,15.1c0.1,0,0.1,0,0.2,0l0.9,1.4c0,0.1,0,0.1,0,0.2c-0.1,0-0.1,0-0.2,0l-0.9-1.4
					C13,15.2,13.1,15.1,13.1,15.1L13.1,15.1z"/>
				<path class="st3" d="M13.1,15.1c0.1,0,0.1,0,0.2,0l0.9,1.4c0,0.1,0,0.1,0,0.2c-0.1,0-0.1,0-0.2,0l-0.9-1.4
					C13,15.2,13,15.1,13.1,15.1L13.1,15.1z M14.1,16.6c0,0,0.1-0.1,0-0.1l-0.9-1.4c0,0-0.1-0.1-0.1,0c0,0-0.1,0.1,0,0.1l0.9,1.4
					C14,16.7,14.1,16.7,14.1,16.6L14.1,16.6z"/>
				<path class="st2" d="M12.9,16.3c0.1,0,0.1,0,0.2,0l0.4,0.6c0,0.1,0,0.1,0,0.2c-0.1,0-0.1,0-0.2,0l-0.4-0.6
					C12.9,16.4,12.9,16.3,12.9,16.3L12.9,16.3z"/>
				<path class="st3" d="M12.9,16.3c0.1,0,0.1,0,0.2,0l0.4,0.6c0,0.1,0,0.1,0,0.2c-0.1,0-0.1,0-0.2,0l-0.4-0.6
					C12.9,16.4,12.9,16.3,12.9,16.3L12.9,16.3z M13.4,17.1c0,0,0.1-0.1,0-0.1l-0.4-0.6c0,0-0.1-0.1-0.1,0c0,0-0.1,0.1,0,0.1l0.4,0.6
					C13.3,17.1,13.4,17.1,13.4,17.1L13.4,17.1z"/>
				<path class="st2" d="M11.9,15.8c0.1,0,0.1,0,0.1,0.1l0.6,1.5c0,0.1,0,0.1-0.1,0.1c-0.1,0-0.1,0-0.1-0.1l-0.6-1.5
					C11.8,15.9,11.9,15.8,11.9,15.8z"/>
				<path class="st3" d="M11.9,15.7c0.1,0,0.1,0,0.2,0.1l0.6,1.5c0,0.1,0,0.1-0.1,0.2c-0.1,0-0.1,0-0.2-0.1l-0.6-1.5
					C11.8,15.9,11.8,15.8,11.9,15.7z M12.6,17.5c0.1,0,0.1-0.1,0.1-0.1L12,15.8c0-0.1-0.1-0.1-0.1-0.1c-0.1,0-0.1,0.1-0.1,0.1
					l0.6,1.5C12.5,17.5,12.6,17.5,12.6,17.5z"/>
				<path class="st2" d="M11.5,16.9c0.1,0,0.1,0,0.2,0.1l0.2,0.7c0,0.1,0,0.1-0.1,0.1c-0.1,0-0.1,0-0.2-0.1L11.5,17
					C11.4,17,11.5,16.9,11.5,16.9L11.5,16.9z"/>
				<path class="st3" d="M11.5,16.9c0.1,0,0.1,0,0.2,0.1l0.2,0.7c0,0.1,0,0.1-0.1,0.2c-0.1,0-0.1,0-0.2-0.1L11.4,17
					C11.4,17,11.5,16.9,11.5,16.9z M11.8,17.8c0.1,0,0.1-0.1,0.1-0.1l-0.2-0.7c0-0.1-0.1-0.1-0.1-0.1c-0.1,0-0.1,0.1-0.1,0.1
					l0.2,0.7C11.7,17.7,11.7,17.7,11.8,17.8C11.8,17.8,11.8,17.8,11.8,17.8L11.8,17.8z"/>
				<path class="st2" d="M10.6,16.2c0.1,0,0.1,0,0.1,0.1l0.3,1.6c0,0.1,0,0.1-0.1,0.1c-0.1,0-0.1,0-0.1-0.1l-0.3-1.6
					C10.5,16.2,10.5,16.2,10.6,16.2L10.6,16.2z"/>
				<path class="st3" d="M10.6,16.1c0.1,0,0.1,0,0.1,0.1l0.3,1.6c0,0.1,0,0.1-0.1,0.1c-0.1,0-0.1,0-0.1-0.1l-0.3-1.6
					C10.5,16.2,10.5,16.2,10.6,16.1L10.6,16.1z M11,18c0.1,0,0.1-0.1,0.1-0.1l-0.3-1.6c0-0.1-0.1-0.1-0.1-0.1
					c-0.1,0-0.1,0.1-0.1,0.1l0.3,1.6C10.9,17.9,10.9,18,11,18L11,18z"/>
				<path class="st2" d="M10.1,17.2c0.1,0,0.2,0,0.2,0.1l0.1,0.7c0,0.1-0.1,0.1-0.2,0.1c-0.1,0-0.2,0-0.2-0.1l-0.1-0.7
					C9.9,17.2,10,17.2,10.1,17.2z"/>
				<path class="st3" d="M10.1,17.2c0.1,0,0.2,0,0.2,0.1l0.1,0.7c0,0.1-0.1,0.1-0.2,0.1c-0.1,0-0.2,0-0.2-0.1l-0.1-0.7
					C9.9,17.2,10,17.2,10.1,17.2z M10.2,18.1c0.1,0,0.1-0.1,0.1-0.1l-0.1-0.7c0-0.1-0.1-0.1-0.2-0.1c-0.1,0-0.1,0.1-0.1,0.1l0.1,0.7
					C10.1,18.1,10.1,18.1,10.2,18.1z"/>
				<path class="st2" d="M9.3,16.3c0.1,0,0.2,0,0.2,0.1V18c0,0.1-0.1,0.1-0.2,0.1s-0.2,0-0.2-0.1v-1.6C9.1,16.3,9.2,16.3,9.3,16.3z"
					/>
				<path class="st3" d="M9.3,16.3c0.1,0,0.2,0.1,0.2,0.1V18c0,0.1-0.1,0.1-0.2,0.1S9.1,18.1,9.1,18v-1.6
					C9.1,16.3,9.2,16.3,9.3,16.3z M9.3,18.1c0.1,0,0.2,0,0.2-0.1v-1.6c0-0.1-0.1-0.1-0.2-0.1c-0.1,0-0.2,0-0.2,0.1V18
					C9.1,18.1,9.2,18.1,9.3,18.1z"/>
				<path class="st2" d="M8.6,17.2c0.1,0,0.2,0.1,0.2,0.1L8.6,18c0,0.1-0.1,0.1-0.2,0.1c-0.1,0-0.2-0.1-0.2-0.1l0.1-0.7
					C8.4,17.2,8.4,17.2,8.6,17.2z"/>
				<path class="st3" d="M8.5,17.2c0.1,0,0.2,0.1,0.2,0.1L8.6,18c0,0.1-0.1,0.1-0.2,0.1c-0.1,0-0.2-0.1-0.2-0.1l0.1-0.7
					C8.3,17.2,8.4,17.2,8.5,17.2z M8.4,18.1c0.1,0,0.2,0,0.2-0.1l0.1-0.7c0-0.1-0.1-0.1-0.2-0.1c-0.1,0-0.2,0-0.2,0.1L8.3,18
					C8.3,18.1,8.3,18.1,8.4,18.1L8.4,18.1z"/>
				<path class="st2" d="M7.8,16.2c0.1,0,0.1,0.1,0.1,0.1l-0.3,1.6C7.6,18,7.5,18,7.5,18c-0.1,0-0.1-0.1-0.1-0.1l0.3-1.6
					C7.7,16.2,7.8,16.1,7.8,16.2z"/>
				<path class="st3" d="M7.8,16.1c0.1,0,0.1,0.1,0.1,0.1l-0.3,1.6C7.6,18,7.5,18,7.5,18c-0.1,0-0.1-0.1-0.1-0.1l0.3-1.6
					C7.7,16.2,7.8,16.1,7.8,16.1L7.8,16.1z M7.5,18c0.1,0,0.1,0,0.1-0.1l0.3-1.6c0-0.1,0-0.1-0.1-0.1c-0.1,0-0.1,0-0.1,0.1l-0.3,1.6
					C7.4,17.9,7.4,18,7.5,18z"/>
				<path class="st2" d="M7,16.9c0.1,0,0.1,0.1,0.1,0.1l-0.2,0.7c0,0.1-0.1,0.1-0.2,0.1c0,0-0.1,0-0.1-0.1c0,0,0-0.1,0-0.1l0.2-0.7
					C6.8,16.9,6.9,16.8,7,16.9L7,16.9z"/>
				<path class="st3" d="M6.9,16.9C7,16.9,7.1,16.9,7,17l-0.2,0.7c0,0.1-0.1,0.1-0.2,0.1c-0.1,0-0.1-0.1-0.1-0.1l0.2-0.7
					C6.8,16.9,6.9,16.8,6.9,16.9L6.9,16.9z M6.7,17.8c0.1,0,0.1,0,0.2-0.1L7,17c0-0.1,0-0.1-0.1-0.1c-0.1,0-0.1,0-0.2,0.1l-0.2,0.7
					C6.6,17.7,6.6,17.7,6.7,17.8z"/>
				<path class="st2" d="M6.5,15.8c0.1,0,0.1,0.1,0.1,0.1L6,17.4c0,0.1-0.1,0.1-0.1,0.1c-0.1,0-0.1-0.1-0.1-0.1l0.6-1.5
					C6.4,15.8,6.5,15.7,6.5,15.8L6.5,15.8z"/>
				<path class="st3" d="M6.5,15.7c0.1,0,0.1,0.1,0.1,0.2L6,17.4c0,0.1-0.1,0.1-0.2,0.1c-0.1,0-0.1-0.1-0.1-0.2l0.6-1.5
					C6.4,15.7,6.5,15.7,6.5,15.7z M5.8,17.5c0.1,0,0.1,0,0.1-0.1l0.6-1.5c0-0.1,0-0.1-0.1-0.1s-0.1,0-0.1,0.1l-0.6,1.5
					C5.7,17.4,5.8,17.4,5.8,17.5z"/>
				<path class="st2" d="M5.5,16.3c0.1,0,0.1,0.1,0.1,0.1l-0.3,0.6c0,0.1-0.1,0.1-0.2,0C5,17.1,5,17,5,17l0.3-0.6
					C5.3,16.2,5.4,16.2,5.5,16.3z"/>
				<path class="st3" d="M5.5,16.2c0.1,0,0.1,0.1,0.1,0.2l-0.3,0.6c0,0.1-0.1,0.1-0.2,0.1C5,17.1,4.9,17,5,17l0.3-0.6
					C5.3,16.2,5.4,16.2,5.5,16.2z M5,17.1c0.1,0,0.1,0,0.1,0l0.3-0.6c0,0,0-0.1,0-0.1c-0.1,0-0.1,0-0.1,0L5,17C5,17,5,17.1,5,17.1
					L5,17.1z"/>
				<path class="st2" d="M5.3,15.1c0.1,0,0.1,0.1,0,0.2l-0.9,1.4c0,0.1-0.1,0.1-0.2,0c-0.1,0-0.1-0.1,0-0.2l0.9-1.4
					C5.2,15.1,5.2,15.1,5.3,15.1L5.3,15.1z"/>
				<path class="st3" d="M5.3,15.1c0.1,0,0.1,0.1,0,0.2l-0.9,1.4c0,0.1-0.1,0.1-0.2,0c-0.1,0-0.1-0.1,0-0.2l0.9-1.4
					C5.2,15.1,5.2,15.1,5.3,15.1z M4.3,16.6c0,0,0.1,0,0.1,0l0.9-1.4c0,0,0-0.1,0-0.1c0,0-0.1,0-0.1,0l-0.9,1.3
					C4.2,16.5,4.2,16.6,4.3,16.6L4.3,16.6z"/>
				<path class="st2" d="M4.2,15.4c0,0,0.1,0.1,0,0.2l-0.5,0.6c0,0-0.1,0.1-0.2,0c0,0-0.1-0.1,0-0.2L4,15.4
					C4,15.4,4.1,15.4,4.2,15.4z"/>
				<path class="st3" d="M4.2,15.4c0.1,0,0.1,0.1,0,0.2l-0.5,0.6c0,0.1-0.1,0.1-0.2,0c-0.1,0-0.1-0.1,0-0.2L4,15.4
					C4,15.3,4.1,15.3,4.2,15.4z M3.6,16.1c0,0,0.1,0,0.1,0l0.5-0.6c0,0,0-0.1,0-0.1c0,0-0.1,0-0.1,0L3.6,16
					C3.5,16,3.5,16.1,3.6,16.1L3.6,16.1z"/>
				<path class="st2" d="M4.2,14.2c0,0,0,0.1,0,0.2l-1.2,1.1c0,0-0.1,0-0.2,0c0,0,0-0.1,0-0.2l1.1-1.1C4.1,14.2,4.2,14.2,4.2,14.2z"
					/>
				<path class="st3" d="M4.2,14.2c0,0,0,0.1,0,0.2l-1.2,1.1c0,0-0.1,0-0.2,0c0,0,0-0.1,0-0.2l1.2-1.1C4.1,14.2,4.2,14.2,4.2,14.2z
					 M2.9,15.5c0,0,0.1,0,0.1,0l1.2-1.1c0,0,0-0.1,0-0.1c0,0-0.1,0-0.1,0l-1.2,1.1C2.9,15.4,2.9,15.5,2.9,15.5L2.9,15.5z"/>
				<path class="st2" d="M3.1,14.3c0,0,0,0.1,0,0.2l-0.6,0.5c0,0-0.1,0-0.2,0c0,0,0-0.1,0-0.2l0.6-0.5C3,14.2,3,14.2,3.1,14.3z"/>
				<path class="st3" d="M3.1,14.3c0,0.1,0,0.1,0,0.2l-0.6,0.5c0,0-0.1,0-0.2,0c0-0.1,0-0.1,0-0.2l0.6-0.5C3,14.2,3,14.2,3.1,14.3
					L3.1,14.3z M2.4,14.9c0,0,0.1,0,0.1,0l0.6-0.5c0,0,0-0.1,0-0.1c0,0-0.1,0-0.1,0l-0.6,0.5C2.3,14.8,2.3,14.8,2.4,14.9L2.4,14.9z"
					/>
				<path class="st2" d="M3.4,13.2c0,0.1,0,0.1,0,0.2L2,14.2c-0.1,0-0.1,0-0.2,0c0-0.1,0-0.1,0-0.2l1.4-0.9
					C3.3,13.1,3.3,13.1,3.4,13.2L3.4,13.2z"/>
				<path class="st3" d="M3.4,13.2c0,0.1,0,0.1,0,0.2L2,14.2c-0.1,0-0.1,0-0.2,0c0-0.1,0-0.1,0-0.2l1.4-0.9
					C3.3,13.1,3.4,13.1,3.4,13.2L3.4,13.2z M1.8,14.2c0,0,0.1,0.1,0.1,0l1.4-0.9c0,0,0.1-0.1,0-0.1c0,0-0.1-0.1-0.1,0L1.9,14
					C1.8,14.1,1.8,14.1,1.8,14.2z"/>
				<path class="st2" d="M2.2,13c0,0.1,0,0.1,0,0.2l-0.6,0.4c-0.1,0-0.1,0-0.2,0c0-0.1,0-0.1,0-0.2l0.6-0.4
					C2.1,12.9,2.2,12.9,2.2,13L2.2,13z"/>
				<path class="st3" d="M2.2,13c0,0.1,0,0.1,0,0.2l-0.6,0.4c-0.1,0-0.1,0-0.2,0c0-0.1,0-0.1,0-0.2l0.6-0.4
					C2.1,12.9,2.2,12.9,2.2,13L2.2,13z M1.4,13.5c0,0.1,0.1,0.1,0.1,0l0.6-0.4c0,0,0.1-0.1,0-0.1c0-0.1-0.1-0.1-0.1,0l-0.6,0.4
					C1.4,13.3,1.4,13.4,1.4,13.5L1.4,13.5z"/>
				<path class="st2" d="M2.7,12c0,0.1,0,0.1-0.1,0.1l-1.5,0.6c-0.1,0-0.1,0-0.1-0.1c0-0.1,0-0.1,0.1-0.1l1.5-0.6
					C2.6,11.9,2.7,11.9,2.7,12z"/>
				<path class="st3" d="M2.8,11.9c0,0.1,0,0.1-0.1,0.2l-1.5,0.6c-0.1,0-0.1,0-0.2-0.1c0-0.1,0-0.1,0.1-0.2l1.5-0.6
					C2.7,11.9,2.7,11.9,2.8,11.9z M1,12.7c0,0.1,0.1,0.1,0.1,0.1l1.5-0.6c0.1,0,0.1-0.1,0.1-0.1c0-0.1-0.1-0.1-0.1-0.1l-1.5,0.6
					C1,12.5,1,12.6,1,12.7L1,12.7z"/>
				<path class="st2" d="M1.6,11.6c0,0.1,0,0.1-0.1,0.2L0.9,12c-0.1,0-0.1,0-0.1-0.1c0-0.1,0-0.1,0.1-0.2l0.7-0.2
					C1.6,11.5,1.6,11.5,1.6,11.6z"/>
				<path class="st3" d="M1.6,11.6c0,0.1,0,0.1-0.1,0.2L0.9,12c-0.1,0-0.1,0-0.2-0.1c0-0.1,0-0.1,0.1-0.2l0.7-0.2
					C1.6,11.5,1.6,11.5,1.6,11.6L1.6,11.6z M0.7,11.9c0,0.1,0.1,0.1,0.1,0.1l0.7-0.2c0.1,0,0.1-0.1,0.1-0.1c0-0.1-0.1-0.1-0.1-0.1
					l-0.7,0.2C0.8,11.8,0.7,11.8,0.7,11.9z"/>
				<path class="st2" d="M2.3,10.6c0,0.1,0,0.1-0.1,0.1l-1.6,0.3c-0.1,0-0.1,0-0.1-0.1c0-0.1,0-0.1,0.1-0.1l1.6-0.3
					C2.3,10.5,2.3,10.6,2.3,10.6L2.3,10.6z"/>
				<path class="st3" d="M2.4,10.6c0,0.1,0,0.1-0.1,0.1l-1.6,0.3c-0.1,0-0.1,0-0.1-0.1c0-0.1,0-0.1,0.1-0.1l1.6-0.3
					C2.3,10.5,2.3,10.6,2.4,10.6z M0.5,11c0,0.1,0.1,0.1,0.1,0.1l1.6-0.3c0.1,0,0.1-0.1,0.1-0.1c0-0.1-0.1-0.1-0.1-0.1l-1.6,0.3
					C0.6,10.9,0.5,10.9,0.5,11L0.5,11z"/>
				<path class="st2" d="M1.3,10.1c0,0.1,0,0.2-0.1,0.2l-0.7,0.1c-0.1,0-0.1-0.1-0.1-0.2c0-0.1,0-0.2,0.1-0.2l0.7-0.1
					C1.3,9.9,1.3,10,1.3,10.1z"/>
				<path class="st3" d="M1.4,10.1c0,0.1,0,0.2-0.1,0.2l-0.7,0.1c-0.1,0-0.1-0.1-0.1-0.2c0-0.1,0-0.2,0.1-0.2l0.7-0.1
					C1.3,9.9,1.3,10,1.4,10.1L1.4,10.1z M0.4,10.2c0,0.1,0.1,0.2,0.1,0.1l0.7-0.1c0.1,0,0.1-0.1,0.1-0.2c0-0.1-0.1-0.2-0.1-0.1
					l-0.7,0.1C0.4,10.1,0.4,10.2,0.4,10.2z"/>
				<path class="st2" d="M2.2,9.4c0,0.1,0,0.3-0.1,0.3H0.5c-0.1,0-0.1-0.1-0.1-0.2s0-0.3,0.1-0.3h1.6C2.2,9.2,2.2,9.3,2.2,9.4
					L2.2,9.4z"/>
				<path class="st3" d="M2.2,9.4c0,0.1-0.1,0.2-0.1,0.2H0.5c-0.1,0-0.1-0.1-0.1-0.2c0-0.1,0.1-0.2,0.1-0.2h1.6
					C2.2,9.1,2.2,9.3,2.2,9.4z M0.4,9.4c0,0.1,0,0.2,0.1,0.2h1.6c0.1,0,0.1-0.1,0.1-0.2c0-0.1,0-0.2-0.1-0.2H0.5
					C0.4,9.2,0.4,9.3,0.4,9.4L0.4,9.4z"/>
				<path class="st4" d="M1.4,8.6c0,0.1-0.1,0.2-0.1,0.2L0.5,8.7c-0.1,0-0.1-0.1-0.1-0.2c0-0.1,0.1-0.2,0.1-0.2l0.7,0.1
					C1.3,8.4,1.4,8.5,1.4,8.6z"/>
				<path class="st3" d="M1.4,8.6c0,0.1-0.1,0.2-0.1,0.2L0.5,8.7c-0.1,0-0.1-0.1-0.1-0.2c0-0.1,0.1-0.2,0.1-0.2l0.7,0.1
					C1.3,8.4,1.4,8.5,1.4,8.6z M0.4,8.5c0,0.1,0,0.2,0.1,0.2l0.7,0.1c0.1,0,0.1-0.1,0.1-0.2c0-0.1,0-0.2-0.1-0.2L0.5,8.3
					C0.5,8.3,0.4,8.4,0.4,8.5L0.4,8.5z"/>
				<path class="st2" d="M2.4,7.9C2.3,8,2.3,8,2.2,8L0.6,7.7c-0.1,0-0.1-0.1-0.1-0.1c0-0.1,0.1-0.1,0.1-0.1l1.6,0.3
					C2.3,7.8,2.4,7.9,2.4,7.9z"/>
				<path class="st3" d="M2.4,7.9C2.4,8,2.3,8,2.2,8L0.6,7.7c-0.1,0-0.1-0.1-0.1-0.1c0-0.1,0.1-0.1,0.1-0.1l1.6,0.3
					C2.3,7.8,2.4,7.8,2.4,7.9z M0.5,7.5c0,0.1,0,0.1,0.1,0.1L2.2,8c0.1,0,0.1,0,0.1-0.1c0-0.1,0-0.1-0.1-0.1L0.7,7.5
					C0.6,7.5,0.6,7.5,0.5,7.5L0.5,7.5z"/>
				<path class="st2" d="M1.7,7C1.6,7.1,1.6,7.1,1.7,7C1.6,7.1,1.5,7.1,1.5,7.1L0.8,6.9c-0.1,0-0.1-0.1-0.1-0.2c0,0,0-0.1,0.1-0.1
					c0,0,0.1,0,0.1,0l0.7,0.2C1.6,6.9,1.7,7,1.7,7L1.7,7z"/>
				<path class="st3" d="M1.7,7c0,0.1-0.1,0.1-0.1,0.1L0.8,6.9c-0.1,0-0.1-0.1-0.1-0.2c0-0.1,0.1-0.1,0.1-0.1l0.7,0.2
					C1.6,6.9,1.7,6.9,1.7,7L1.7,7z M0.8,6.7c0,0.1,0,0.1,0.1,0.2l0.7,0.2c0.1,0,0.1,0,0.1-0.1c0-0.1,0-0.1-0.1-0.2L0.9,6.6
					C0.8,6.6,0.8,6.7,0.8,6.7L0.8,6.7z"/>
				<path class="st2" d="M2.8,6.6c0,0.1-0.1,0.1-0.1,0.1L1.1,6C1,6,1,5.9,1,5.9c0-0.1,0.1-0.1,0.1-0.1l1.5,0.6
					C2.8,6.5,2.8,6.5,2.8,6.6L2.8,6.6z"/>
				<path class="st3" d="M2.8,6.6c0,0.1-0.1,0.1-0.2,0.1L1.1,6.1C1,6,1,6,1,5.9c0-0.1,0.1-0.1,0.2-0.1l1.5,0.6
					C2.8,6.5,2.8,6.5,2.8,6.6z M1.1,5.9C1,6,1.1,6,1.1,6l1.5,0.6c0.1,0,0.1,0,0.1-0.1c0-0.1,0-0.1-0.1-0.1L1.2,5.8
					C1.1,5.8,1.1,5.8,1.1,5.9z"/>
				<path class="st2" d="M2.2,5.5c0,0.1-0.1,0.1-0.1,0.1L1.5,5.3c-0.1,0-0.1-0.1,0-0.2c0-0.1,0.1-0.1,0.1-0.1l0.6,0.3
					C2.3,5.4,2.3,5.5,2.2,5.5z"/>
				<path class="st3" d="M2.3,5.6c0,0.1-0.1,0.1-0.2,0.1L1.4,5.3c-0.1,0-0.1-0.1-0.1-0.2c0-0.1,0.1-0.1,0.2-0.1l0.6,0.3
					C2.3,5.4,2.3,5.5,2.3,5.6z M1.4,5.1c0,0.1,0,0.1,0,0.1l0.6,0.3c0,0,0.1,0,0.1,0c0-0.1,0-0.1,0-0.1L1.5,5.1
					C1.5,5.1,1.4,5.1,1.4,5.1L1.4,5.1z"/>
				<path class="st2" d="M3.4,5.4c0,0.1-0.1,0.1-0.2,0L1.9,4.5c-0.1,0-0.1-0.1,0-0.2c0-0.1,0.1-0.1,0.2,0l1.4,0.9
					C3.4,5.3,3.4,5.4,3.4,5.4z"/>
				<path class="st3" d="M3.4,5.4c0,0.1-0.1,0.1-0.2,0L1.9,4.5c-0.1,0-0.1-0.1,0-0.2c0-0.1,0.1-0.1,0.2,0l1.4,0.9
					C3.4,5.3,3.4,5.4,3.4,5.4z M1.9,4.4c0,0,0,0.1,0,0.1l1.4,0.9c0,0,0.1,0,0.1,0c0,0,0-0.1,0-0.1L2,4.3C2,4.3,1.9,4.3,1.9,4.4
					L1.9,4.4z"/>
				<path class="st2" d="M3.1,4.3c0,0-0.1,0.1-0.2,0L2.4,3.8c0,0-0.1-0.1,0-0.2s0.1-0.1,0.2,0l0.6,0.4C3.1,4.1,3.1,4.2,3.1,4.3z"/>
				<path class="st3" d="M3.1,4.3c0,0.1-0.1,0.1-0.2,0L2.4,3.9c-0.1,0-0.1-0.1,0-0.2c0-0.1,0.1-0.1,0.2,0l0.6,0.4
					C3.1,4.1,3.2,4.2,3.1,4.3L3.1,4.3z M2.4,3.7c0,0,0,0.1,0,0.1L3,4.3c0,0,0.1,0,0.1,0c0,0,0-0.1,0-0.1L2.5,3.7
					C2.5,3.6,2.4,3.6,2.4,3.7L2.4,3.7z"/>
				<path class="st2" d="M4.3,4.3c0,0-0.1,0-0.2,0L3,3.2c0,0,0-0.1,0-0.2c0,0,0.1,0,0.2,0l1.2,1.1C4.3,4.2,4.3,4.3,4.3,4.3L4.3,4.3z
					"/>
				<path class="st3" d="M4.3,4.4c0,0-0.1,0-0.2,0L2.9,3.2c0,0,0-0.1,0-0.2c0,0,0.1,0,0.2,0l1.2,1.1C4.3,4.2,4.3,4.3,4.3,4.4
					L4.3,4.4z M3,3c0,0,0,0.1,0,0.1l1.2,1.1c0,0,0.1,0,0.1,0c0,0,0-0.1,0-0.1L3.1,3C3.1,3,3,3,3,3L3,3z"/>
				<path class="st2" d="M4.2,3.2c0,0-0.1,0-0.2,0L3.6,2.6c0,0,0-0.1,0-0.2c0,0,0.1,0,0.2,0L4.2,3C4.3,3.1,4.2,3.1,4.2,3.2z"/>
				<path class="st3" d="M4.2,3.2c-0.1,0-0.1,0-0.2,0L3.6,2.6c0,0,0-0.1,0-0.2c0.1,0,0.1,0,0.2,0L4.2,3C4.3,3.1,4.3,3.1,4.2,3.2z
					 M3.6,2.5c0,0,0,0.1,0,0.1L4,3.2c0,0,0.1,0,0.1,0c0,0,0-0.1,0-0.1L3.7,2.5C3.7,2.4,3.6,2.4,3.6,2.5z"/>
				<path class="st2" d="M5.3,3.5c-0.1,0-0.1,0-0.2,0L4.3,2.1c0-0.1,0-0.1,0-0.2c0.1,0,0.1,0,0.2,0l0.9,1.4C5.4,3.4,5.4,3.4,5.3,3.5
					L5.3,3.5z"/>
				<path class="st3" d="M5.3,3.5c-0.1,0-0.1,0-0.2,0L4.2,2.1c0-0.1,0-0.1,0-0.2c0.1,0,0.1,0,0.2,0l0.9,1.4C5.4,3.4,5.4,3.4,5.3,3.5
					z M4.3,1.9c0,0-0.1,0.1,0,0.1l0.9,1.4c0,0,0.1,0.1,0.1,0c0,0,0.1-0.1,0-0.1L4.4,2C4.4,1.9,4.3,1.9,4.3,1.9L4.3,1.9z"/>
				<path class="st2" d="M5.5,2.3c-0.1,0-0.1,0-0.2,0L5,1.6c0-0.1,0-0.1,0-0.2c0.1,0,0.1,0,0.2,0l0.4,0.6C5.6,2.2,5.5,2.3,5.5,2.3
					L5.5,2.3z"/>
				<path class="st3" d="M5.5,2.3c-0.1,0-0.1,0-0.2,0L5,1.7c0-0.1,0-0.1,0-0.2c0.1,0,0.1,0,0.2,0l0.4,0.6C5.6,2.2,5.6,2.3,5.5,2.3
					L5.5,2.3z M5,1.5c0,0-0.1,0.1,0,0.1l0.4,0.6c0,0,0.1,0.1,0.1,0c0,0,0.1-0.1,0-0.1L5.2,1.5C5.1,1.5,5.1,1.5,5,1.5z"/>
				<path class="st2" d="M6.5,2.8c-0.1,0-0.1,0-0.1-0.1L5.8,1.3c0-0.1,0-0.1,0.1-0.1c0.1,0,0.1,0,0.1,0.1l0.6,1.5
					C6.6,2.7,6.6,2.8,6.5,2.8L6.5,2.8z"/>
				<path class="st3" d="M6.5,2.8c-0.1,0-0.1,0-0.2-0.1L5.7,1.3c0-0.1,0-0.1,0.1-0.2c0.1,0,0.1,0,0.2,0.1l0.6,1.5
					C6.6,2.7,6.6,2.8,6.5,2.8L6.5,2.8z M5.8,1.1c-0.1,0-0.1,0.1-0.1,0.1l0.6,1.5c0,0.1,0.1,0.1,0.1,0.1c0.1,0,0.1-0.1,0.1-0.1L6,1.2
					C5.9,1.1,5.9,1.1,5.8,1.1L5.8,1.1z"/>
				<path class="st2" d="M6.9,1.7c-0.1,0-0.1,0-0.2-0.1L6.5,1c0-0.1,0-0.1,0.1-0.1c0.1,0,0.1,0,0.2,0.1L7,1.6C7,1.6,7,1.7,6.9,1.7
					L6.9,1.7z"/>
				<path class="st3" d="M6.9,1.7c-0.1,0-0.1,0-0.2-0.1L6.5,1c0-0.1,0-0.1,0.1-0.2c0.1,0,0.1,0,0.2,0.1L7,1.6C7,1.6,7,1.7,6.9,1.7z
					 M6.6,0.8C6.6,0.9,6.5,0.9,6.5,1l0.2,0.7c0,0.1,0.1,0.1,0.1,0.1C7,1.7,7,1.6,7,1.6L6.8,0.9C6.8,0.9,6.7,0.8,6.6,0.8
					C6.7,0.8,6.6,0.8,6.6,0.8L6.6,0.8z"/>
				<path class="st2" d="M7.8,2.4c-0.1,0-0.1,0-0.1-0.1L7.4,0.7c0-0.1,0-0.1,0.1-0.1c0.1,0,0.1,0,0.1,0.1l0.3,1.6
					C7.9,2.4,7.9,2.4,7.8,2.4z"/>
				<path class="st3" d="M7.8,2.4c-0.1,0-0.1,0-0.1-0.1L7.4,0.7c0-0.1,0-0.1,0.1-0.1c0.1,0,0.1,0,0.1,0.1l0.3,1.6
					C7.9,2.4,7.9,2.4,7.8,2.4z M7.5,0.6c-0.1,0-0.1,0.1-0.1,0.1l0.3,1.6c0,0.1,0.1,0.1,0.1,0.1c0.1,0,0.1-0.1,0.1-0.1L7.6,0.7
					C7.6,0.6,7.5,0.6,7.5,0.6L7.5,0.6z"/>
				<path class="st2" d="M8.5,1.4c-0.1,0-0.2,0-0.2-0.1L8.2,0.6c0-0.1,0.1-0.1,0.2-0.1c0.1,0,0.2,0,0.2,0.1l0.1,0.7
					C8.7,1.4,8.6,1.4,8.5,1.4z"/>
				<path class="st3" d="M8.5,1.4c-0.1,0-0.2,0-0.2-0.1L8.2,0.6c0-0.1,0.1-0.1,0.2-0.1c0.1,0,0.2,0,0.2,0.1l0.1,0.7
					C8.7,1.4,8.6,1.4,8.5,1.4z M8.4,0.5c-0.1,0-0.1,0.1-0.1,0.1l0.1,0.7c0,0.1,0.1,0.1,0.2,0.1c0.1,0,0.1-0.1,0.1-0.1L8.5,0.6
					C8.5,0.5,8.4,0.5,8.4,0.5z"/>
				
					<linearGradient id="SVGID_2_" gradientUnits="userSpaceOnUse" x1="-271.7092" y1="407.5757" x2="-271.9426" y2="407.157" gradientTransform="matrix(18.5 0 0 -18.5 5036.9775 7547.4956)">
					<stop  offset="0" style="stop-color:#000000;stop-opacity:0"/>
					<stop  offset="1" style="stop-color:#000000"/>
				</linearGradient>
				<circle class="st5" cx="9.3" cy="9.3" r="9.2"/>
			</g>
			<polygon class="st6" points="16.5,4.1 9,8.9 9,8.9 9,8.9 9,8.9 4.3,16.6 11.2,11.1 11.2,11.1 11.2,11.1 16.5,4.1 			"/>
			<polyline class="st7" points="16.3,3.7 8.9,8.9 11.1,11.1 16.3,3.7 			"/>
			<polygon class="st8" points="9,8.9 10.1,10 16.3,3.7 			"/>
			<polygon class="st9" points="9,8.9 11.1,11.1 3.8,16.3 9,8.9 			"/>
			<polygon class="st10" points="3.8,16.3 10.1,10 9,8.9 			"/>
		</g>
	</g>
</g>
</svg>
