<?xml version="1.0" encoding="utf-8"?>
<!-- Generator: Adobe Illustrator 22.1.0, SVG Export Plug-In . SVG Version: 6.00 Build 0)  -->
<svg version="1.1" id="Layer_2" xmlns="http://www.w3.org/2000/svg" xmlns:xlink="http://www.w3.org/1999/xlink" x="0px" y="0px"
	 viewBox="0 0 16 16" style="enable-background:new 0 0 16 16;" xml:space="preserve">
<style type="text/css">
	.st0{fill:#687086;}
</style>
<path id="path-1_1_" class="st0" d="M9,15h2v1H5v-1h2v-2.1C4.7,12.4,3,10.4,3,8V6h1v2c0,2.2,1.8,4,4,4s4-1.8,4-4V6h1v2
	c0,2.4-1.7,4.4-4,4.9V15z M8,0c1.7,0,3,1.3,3,3v5c0,1.7-1.3,3-3,3S5,9.7,5,8V3C5,1.3,6.3,0,8,0z"/>
</svg>
