<?xml version="1.0" encoding="utf-8"?>
<!-- Generator: Adobe Illustrator 22.1.0, SVG Export Plug-In . SVG Version: 6.00 Build 0)  -->
<svg version="1.1" id="Layer_2" xmlns="http://www.w3.org/2000/svg" xmlns:xlink="http://www.w3.org/1999/xlink" x="0px" y="0px"
	 viewBox="0 0 16 16" style="enable-background:new 0 0 16 16;" xml:space="preserve">
<style type="text/css">
	.st0{fill:#687086;}
</style>
<path id="path-1_1_" class="st0" d="M8,9.4l-3.2,3.2c-0.4,0.4-1,0.4-1.4,0c-0.4-0.4-0.4-1,0-1.4L6.6,8L3.4,4.8C3,4.4,3,3.8,3.4,3.4
	s1-0.4,1.4,0L8,6.6l3.2-3.2c0.4-0.4,1-0.4,1.4,0c0.4,0.4,0.4,1,0,1.4L9.4,8l3.2,3.2c0.4,0.4,0.4,1,0,1.4c-0.4,0.4-1,0.4-1.4,0L8,9.4
	z"/>
</svg>
