<?xml version="1.0" encoding="utf-8"?>
<!-- Generator: Adobe Illustrator 22.1.0, SVG Export Plug-In . SVG Version: 6.00 Build 0)  -->
<svg version="1.1" id="Layer_2" xmlns="http://www.w3.org/2000/svg" xmlns:xlink="http://www.w3.org/1999/xlink" x="0px" y="0px"
	 viewBox="0 0 16 16" style="enable-background:new 0 0 16 16;" xml:space="preserve">
<style type="text/css">
	.st0{fill:#687086;}
</style>
<path id="path-1_1_" class="st0" d="M1,2h14c0.6,0,1,0.4,1,1v10c0,0.6-0.4,1-1,1H1c-0.6,0-1-0.4-1-1V3C0,2.4,0.4,2,1,2z M11.6,8.6
	c0.1,0,0.1-0.1,0.1-0.1c0.2-0.2,0.1-0.5-0.1-0.7L6.7,4.5C6.7,4.5,6.6,4.5,6.5,4.5C6.2,4.5,6,4.7,6,5v6.4c0,0.1,0,0.2,0.1,0.3
	c0.2,0.2,0.5,0.3,0.7,0.1L11.6,8.6z"/>
</svg>
