<?xml version="1.0" encoding="utf-8"?>
<!-- Generator: Adobe Illustrator 22.1.0, SVG Export Plug-In . SVG Version: 6.00 Build 0)  -->
<svg version="1.1" id="Layer_2" xmlns="http://www.w3.org/2000/svg" xmlns:xlink="http://www.w3.org/1999/xlink" x="0px" y="0px"
	 viewBox="0 0 16 16"  width="14" height="14" style="enable-background:new 0 0 16 16;" xml:space="preserve">
<style type="text/css">
	.st0{fill:#D4D7DD;}
</style>
<path id="path-1_1_" class="st0" d="M4.1,2.6V1c0-0.5,0.4-1,1-1s1,0.4,1,1v3.3V5c0,0.5-0.4,1-1,1h-4c-0.5,0-1-0.4-1-1s0.4-1,1-1h1.6
	L0.3,1.7c-0.4-0.4-0.4-1,0-1.4s1-0.4,1.4,0L4.1,2.6z M4.1,13.4l-2.3,2.2c-0.4,0.4-1,0.4-1.4,0c-0.4-0.4-0.4-1,0-1.4l2.4-2.3H1.1
	c-0.5,0-1-0.4-1-1c0-0.5,0.4-1,1-1h3h1c0.5,0,1,0.4,1,1v4c0,0.5-0.4,1-1,1s-1-0.4-1-1V13.4z M12,13.3v1.5c0,0.5-0.4,1-1,1
	c-0.5,0-1-0.4-1-1v-4c0-0.5,0.4-1,1-1h1h3c0.5,0,1,0.4,1,1c0,0.5-0.4,1-1,1h-1.6l2.3,2.4c0.4,0.4,0.4,1,0,1.4c-0.4,0.4-1,0.4-1.4,0
	L12,13.3z M12,2.7l2.3-2.4c0.4-0.4,1-0.4,1.4,0c0.4,0.4,0.4,1,0,1.4L13.5,4H15c0.5,0,1,0.4,1,1s-0.4,1-1,1h-3h-1c-0.5,0-1-0.4-1-1V1
	c0-0.5,0.4-1,1-1c0.5,0,1,0.4,1,1V2.7z"/>
</svg>
