<?xml version="1.0" encoding="utf-8"?>
<!-- Generator: Adobe Illustrator 22.1.0, SVG Export Plug-In . SVG Version: 6.00 Build 0)  -->
<svg version="1.1" id="draganddrop" xmlns="http://www.w3.org/2000/svg" xmlns:xlink="http://www.w3.org/1999/xlink" x="0px" y="0px"
	 viewBox="0 0 28 12" width="28" height="12" style="enable-background:new 0 0 28 12;" xml:space="preserve">
<style type="text/css">
	#draganddrop .st0{fill:#B1B4BE;} .handle:hover #draganddrop .st0{fill:#687086}
</style>
<g id="Mask">
	<path id="path-1_1_" class="st0" d="M1.1,2c-0.6,0-1-0.4-1-1s0.5-1,1-1s1,0.4,1,1S1.7,2,1.1,2z M6.3,2c-0.6,0-1-0.4-1-1s0.5-1,1-1
		s1,0.4,1,1S6.8,2,6.3,2z M11.4,2c-0.6,0-1-0.4-1-1s0.5-1,1-1c0.6,0,1,0.4,1,1S12,2,11.4,2z M16.6,2c-0.6,0-1-0.4-1-1s0.5-1,1-1
		s1,0.4,1,1S17.2,2,16.6,2z M21.7,2c-0.6,0-1-0.4-1-1s0.5-1,1-1s1,0.4,1,1S22.3,2,21.7,2z M26.9,2c-0.6,0-1-0.4-1-1s0.5-1,1-1
		c0.6,0,1,0.4,1,1S27.5,2,26.9,2z M1.1,7c-0.6,0-1-0.4-1-1s0.5-1,1-1s1,0.4,1,1S1.7,7,1.1,7z M6.3,7c-0.6,0-1-0.4-1-1s0.5-1,1-1
		s1,0.4,1,1S6.8,7,6.3,7z M11.4,7c-0.6,0-1-0.4-1-1s0.5-1,1-1c0.6,0,1,0.4,1,1S12,7,11.4,7z M16.6,7c-0.6,0-1-0.4-1-1s0.5-1,1-1
		s1,0.4,1,1S17.2,7,16.6,7z M21.7,7c-0.6,0-1-0.4-1-1s0.5-1,1-1s1,0.4,1,1S22.3,7,21.7,7z M26.9,7c-0.6,0-1-0.4-1-1s0.5-1,1-1
		c0.6,0,1,0.4,1,1S27.5,7,26.9,7z M1.1,12c-0.6,0-1-0.4-1-1s0.5-1,1-1s1,0.4,1,1S1.7,12,1.1,12z M6.3,12c-0.6,0-1-0.4-1-1s0.5-1,1-1
		s1,0.4,1,1S6.8,12,6.3,12z M11.4,12c-0.6,0-1-0.4-1-1s0.5-1,1-1c0.6,0,1,0.4,1,1S12,12,11.4,12z M16.6,12c-0.6,0-1-0.4-1-1
		s0.5-1,1-1s1,0.4,1,1S17.2,12,16.6,12z M21.7,12c-0.6,0-1-0.4-1-1s0.5-1,1-1s1,0.4,1,1S22.3,12,21.7,12z M26.9,12c-0.6,0-1-0.4-1-1
		s0.5-1,1-1c0.6,0,1,0.4,1,1S27.5,12,26.9,12z"/>
</g>
</svg>
