<?xml version="1.0" encoding="utf-8"?>
<!-- Generator: Adobe Illustrator 22.1.0, SVG Export Plug-In . SVG Version: 6.00 Build 0)  -->
<svg version="1.1" id="Layer_2" xmlns="http://www.w3.org/2000/svg" xmlns:xlink="http://www.w3.org/1999/xlink" x="0px" y="0px"
	 viewBox="0 0 16 16"  width="14" height="14"
style="enable-background:new 0 0 16 16;" xml:space="preserve">
<style type="text/css">
	.st0{fill:#D4D7DD;}
</style>
<path id="path-1_1_" class="st0" d="M2,12.7l2.3-2.4c0.4-0.4,1-0.4,1.4,0s0.4,1,0,1.4L3.5,14H5c0.6,0,1,0.4,1,1s-0.4,1-1,1H2H1
	c-0.6,0-1-0.4-1-1v-4c0-0.6,0.4-1,1-1s1,0.4,1,1V12.7z M12.5,14l-2.2-2.3c-0.4-0.4-0.4-1,0-1.4s1-0.4,1.4,0l2.3,2.4V11
	c0-0.6,0.4-1,1-1s1,0.4,1,1v3v1c0,0.6-0.4,1-1,1h-4c-0.6,0-1-0.4-1-1s0.4-1,1-1H12.5z M2,3.4V5c0,0.6-0.4,1-1,1S0,5.6,0,5V1
	c0-0.6,0.4-1,1-1h1h3c0.6,0,1,0.4,1,1S5.6,2,5,2H3.4l2.3,2.5c0.4,0.4,0.4,1,0,1.4c-0.4,0.4-1,0.4-1.4,0L2,3.4z M14,3.4l-2.3,2.4
	c-0.4,0.4-1,0.4-1.4,0s-0.4-1,0-1.4L12.6,2H11c-0.6,0-1-0.4-1-1s0.4-1,1-1h3h1c0.6,0,1,0.4,1,1v4c0,0.6-0.4,1-1,1s-1-0.4-1-1V3.4z"
	/>
</svg>
