<?xml version="1.0" encoding="utf-8"?>
<!-- Generator: Adobe Illustrator 22.0.1, SVG Export Plug-In . SVG Version: 6.00 Build 0)  -->
<svg version="1.1" id="Layer_1" xmlns="http://www.w3.org/2000/svg" xmlns:xlink="http://www.w3.org/1999/xlink" x="0px" y="0px"
	 viewBox="0 0 17 16" width="17" height="16" style="enable-background:new 0 0 17 16;" xml:space="preserve">
<style type="text/css">
	.st011{fill:#B1B4BE;}
</style>
<path id="path-1_1_" class="st011" d="M12.1,5.3c1.1,0.1,2.2,0.2,3.2,0.4s1.8,1,1.7,2c0,0.2-0.1,0.5-0.2,0.7C17,8.7,17,9.1,17,9.5
	c-0.1,0.4-0.2,0.8-0.5,1.1c0.1,0.2,0.1,0.5,0.1,0.7c-0.1,0.4-0.3,0.8-0.6,1.2c0,0.2,0,0.4,0,0.6c-0.1,0.9-1,1.7-1.9,1.7
	c-1.9,0.1-4.6,0.6-6.4-0.2c-0.4-0.1-0.8-0.4-1.2-0.4H5V7.3l0.8-0.1C6,7.2,6.2,7.1,6.3,7l1.2-1.6c0.8-1,0.6-2.8,0.7-4
	c0-1.3,1.4-1.7,2.4-1.2c0.7,0.3,1.2,0.9,1.3,1.7c0.1,1,0.2,2,0.1,3C11.9,5.1,11.8,5.3,12.1,5.3L12.1,5.3z M0,7h4v9H0V7z M2,13
	c-0.6,0-1,0.4-1,1s0.4,1,1,1s1-0.4,1-1S2.6,13,2,13z"/>
</svg>
