<?xml version="1.0" encoding="utf-8"?>
<!-- Generator: Adobe Illustrator 22.0.1, SVG Export Plug-In . SVG Version: 6.00 Build 0)  -->
<svg version="1.1" id="Layer_1" xmlns="http://www.w3.org/2000/svg" xmlns:xlink="http://www.w3.org/1999/xlink" x="0px" y="0px"
	 viewBox="0 0 16 16" width="16" height="16" style="enable-background:new 0 0 16 16;" xml:space="preserve">
<style type="text/css">
	.st011{fill:#B1B4BE;}
</style>
<path id="path-1_1_" class="st011" d="M11,10.8c0.5-0.5,1.2-0.8,2-0.8c1.7,0,3,1.3,3,3s-1.3,3-3,3s-3-1.3-3-3c0-0.2,0-0.3,0-0.5
	l-3.1-1.7C6.2,11.5,5.1,12,4,12c-2.2,0-4-1.8-4-4s1.8-4,4-4c1.1,0,2.2,0.5,2.9,1.2L10,3.5c0-0.2,0-0.3,0-0.5c0-1.7,1.3-3,3-3
	s3,1.3,3,3s-1.3,3-3,3c-0.8,0-1.5-0.3-2-0.8L7.9,7C8,7.3,8,7.7,8,8c0,0.3,0,0.7-0.1,1L11,10.8z"/>
</svg>
