<?xml version="1.0" encoding="utf-8"?>
<!-- Generator: Adobe Illustrator 22.0.1, SVG Export Plug-In . SVG Version: 6.00 Build 0)  -->
<svg version="1.1" id="Layer_1" xmlns="http://www.w3.org/2000/svg" xmlns:xlink="http://www.w3.org/1999/xlink" x="0px" y="0px"
	 viewBox="0 0 30 30" width="30" height="30" style="enable-background:new 0 0 30 30;" xml:space="preserve">
<style type="text/css">
	.st0{fill:#FFFFFF;}
	.st1{filter:url(#Adobe_OpacityMaskFilter);}
	.st2{mask:url(#mask-2_1_);}
	.st3{fill:#53D79F;}
</style>
<g id="NEW-DESIGN">
	<g id="Content" transform="translate(-191.000000, -86.000000)">
		<g id="_xD83C__xDF53_icon-_x2F_-add" transform="translate(195.000000, 88.000000)">
			<g id="background">
				<g id="Mask">
					<circle id="path-1_1_" class="st0" cx="11" cy="13" r="15"/>
				</g>
				<defs>
					<filter id="Adobe_OpacityMaskFilter" filterUnits="userSpaceOnUse" x="-4" y="-2" width="30" height="30">
						<feColorMatrix  type="matrix" values="1 0 0 0 0  0 1 0 0 0  0 0 1 0 0  0 0 0 1 0"/>
					</filter>
				</defs>
				<mask maskUnits="userSpaceOnUse" x="-4" y="-2" width="30" height="30" id="mask-2_1_">
					<g class="st1">
						<circle id="path-1_2_" class="st0" cx="11" cy="13" r="15"/>
					</g>
				</mask>
				<g id="_xD83C__xDFA8_color-_x2F_1-white" class="st2">
					<rect id="Rectangle-27" x="-4" y="-2" class="st0" width="30" height="30"/>
				</g>
			</g>
			<g id="icon" transform="translate(9.464466, 9.707107)">
				<g id="Mask_1_">
					<path id="path-3_1_" class="st3" d="M2.5,2.3v-3c0-0.6-0.4-1-1-1s-1,0.4-1,1v3h-3c-0.6,0-1,0.4-1,1s0.4,1,1,1h3v3
						c0,0.6,0.4,1,1,1s1-0.4,1-1v-3h3c0.6,0,1-0.4,1-1s-0.4-1-1-1H2.5z"/>
				</g>
			</g>
		</g>
	</g>
</g>
</svg>
