<svg xmlns="http://www.w3.org/2000/svg" xmlns:xlink="http://www.w3.org/1999/xlink" version="1.1" id="revert" x="0px" y="0px" viewBox="0 0 16 16" style="enable-background:new 0 0 16 16;" width="16" height="16" xml:space="preserve">
  <style type="text/css">
    #revert .st5{fill:#D4D7DD;}
    #revert .st1{fill:none;}
    span.revert:hover #revert .st5{fill:#687086;}
  </style>
  <g>
    <g id="_xD83C__xDF53_icon-_x2F_-colapse">
      <g id="_xD83C__xDFA8_color">
        <g id="Mask">
          <path id="path-1_1_" class="st5" d="M12,10h3c0.6,0,1,0.4,1,1s-0.4,1-1,1h-3v3c0,0.6-0.4,1-1,1s-1-0.4-1-1v-4c0-0.6,0.4-1,1-1      H12z M4,12H1c-0.6,0-1-0.4-1-1s0.4-1,1-1h3h1c0.6,0,1,0.4,1,1v4c0,0.6-0.4,1-1,1s-1-0.4-1-1V12z M12,4h3c0.6,0,1,0.4,1,1      s-0.4,1-1,1h-3h-1c-0.6,0-1-0.4-1-1V1c0-0.6,0.4-1,1-1s1,0.4,1,1V4z M4,4V1c0-0.6,0.4-1,1-1s1,0.4,1,1v3.4V5c0,0.6-0.4,1-1,1H1      C0.4,6,0,5.6,0,5s0.4-1,1-1H4z"/>
        </g>
      </g>
    </g>
    <rect x="-0.1" y="0" class="st1" width="16" height="16"/>
  </g>
</svg>
