<?xml version="1.0" encoding="utf-8"?>
<!-- Generator: Adobe Illustrator 22.0.1, SVG Export Plug-In . SVG Version: 6.00 Build 0)  -->
<svg version="1.1" id="Layer_1" xmlns="http://www.w3.org/2000/svg" xmlns:xlink="http://www.w3.org/1999/xlink" x="0px" y="0px"
	 viewBox="0 0 20 16" width="20" height="16" style="enable-background:new 0 0 20 16;" xml:space="preserve">
<style type="text/css">
	.st011{fill:#B1B4BE;}
</style>
<path id="path-1_1_" class="st011" d="M20,1.9c-0.7,0.3-1.5,0.5-2.4,0.7c0.9-0.5,1.5-1.3,1.8-2.2c-0.8,0.5-1.7,0.8-2.6,1
	C16,0.4,15,0,13.8,0c-1.1,0-2.1,0.4-2.9,1.2S9.7,2.9,9.7,4c0,0.4,0,0.7,0.1,0.9C8.2,4.9,6.6,4.5,5.1,3.7S2.4,2,1.4,0.7
	C1,1.4,0.8,2.1,0.8,2.8c0,1.5,0.6,2.6,1.8,3.4C2,6.1,1.3,6,0.6,5.6v0c0,1,0.3,1.8,1,2.6S3.1,9.5,4,9.6C3.6,9.7,3.3,9.8,3,9.8
	c-0.2,0-0.4,0-0.8-0.1c0.3,0.8,0.8,1.5,1.5,2s1.5,0.8,2.4,0.8c-1.5,1.2-3.2,1.7-5.1,1.7c-0.3,0-0.7,0-1-0.1C1.9,15.4,4,16,6.3,16
	c1.5,0,2.8-0.2,4.1-0.7s2.4-1.1,3.3-1.8s1.7-1.6,2.4-2.6s1.1-2,1.5-3.1S18,5.6,18,4.5c0-0.2,0-0.4,0-0.5C18.8,3.4,19.5,2.7,20,1.9z"
	/>
</svg>
